0
SECTION
2
HEADER
9
$INSUNITS
70
4
9
$ACADVER
1
AC1014
9
$HANDSEED
5
FFFF
0
ENDSEC
0
SECTION
2
TABLES
0
TABLE
2
VPORT
5
8
100
AcDbSymbolTable
0
ENDTAB
0
TABLE
2
LTYPE
5
5
100
AcDbSymbolTable
0
LTYPE
5
14
100
AcDbSymbolTableRecord
100
AcDbLinetypeTableRecord
2
BYBLOCK
70
0
0
LTYPE
5
15
100
AcDbSymbolTableRecord
100
AcDbLinetypeTableRecord
2
BYLAYER
70
0
0
ENDTAB
0
TABLE
2
LAYER
5
2
100
AcDbSymbolTable
70
2
0
LAYER
5
50
100
AcDbSymbolTableRecord
100
AcDbLayerTableRecord
2
0
70
0
6
CONTINUOUS
0
ENDTAB
0
TABLE
2
STYLE
5
3
100
AcDbSymbolTable
70
1
0
STYLE
5
11
100
AcDbSymbolTableRecord
100
AcDbTextStyleTableRecord
2
STANDARD
70
0
0
ENDTAB
0
TABLE
2
VIEW
5
6
100
AcDbSymbolTable
70
0
0
ENDTAB
0
TABLE
2
UCS
5
7
100
AcDbSymbolTable
70
0
0
ENDTAB
0
TABLE
2
APPID
5
9
100
AcDbSymbolTable
70
2
0
APPID
5
12
100
AcDbSymbolTableRecord
100
AcDbRegAppTableRecord
2
ACAD
70
0
0
ENDTAB
0
TABLE
2
DIMSTYLE
5
A
100
AcDbSymbolTable
70
1
0
ENDTAB
0
TABLE
2
BLOCK_RECORD
5
1
100
AcDbSymbolTable
70
1
0
BLOCK_RECORD
5
1F
100
AcDbSymbolTableRecord
100
AcDbBlockTableRecord
2
*MODEL_SPACE
0
BLOCK_RECORD
5
1B
100
AcDbSymbolTableRecord
100
AcDbBlockTableRecord
2
*PAPER_SPACE
0
ENDTAB
0
ENDSEC
0
SECTION
2
BLOCKS
0
BLOCK
5
20
100
AcDbEntity
100
AcDbBlockBegin
2
*MODEL_SPACE
0
ENDBLK
5
21
100
AcDbEntity
100
AcDbBlockEnd
0
BLOCK
5
1C
100
AcDbEntity
100
AcDbBlockBegin
2
*PAPER_SPACE
0
ENDBLK
5
1D
100
AcDbEntity
100
AcDbBlockEnd
0
ENDSEC
0
SECTION
2
ENTITIES
0
LWPOLYLINE
5
100
100
AcDbEntity
8
0
100
AcDbPolyline
90
8
70
1
43
0.0
10
269.22500000000002
20
-79.224999999999994
42
-0.41421356237309503
10
269.72500000000002
20
-78.724999999999994
10
282.72500000000002
20
-78.724999999999994
42
-0.41421356237309503
10
283.22500000000002
20
-79.224999999999994
10
283.22500000000002
20
-92.224999999999994
42
-0.41421356237309503
10
282.72500000000002
20
-92.725000000000009
10
269.72500000000002
20
-92.725000000000009
42
-0.41421356237309503
10
269.22500000000002
20
-92.224999999999994
0
LWPOLYLINE
5
101
100
AcDbEntity
8
0
100
AcDbPolyline
90
8
70
1
43
0.0
10
302.27499999999998
20
-92.224999999999994
42
-0.41421356237309503
10
301.77499999999998
20
-92.725000000000009
10
288.77499999999998
20
-92.725000000000009
42
-0.41421356237309503
10
288.27499999999998
20
-92.224999999999994
10
288.27499999999998
20
-79.224999999999994
42
-0.41421356237309503
10
288.77499999999998
20
-78.724999999999994
10
301.77499999999998
20
-78.724999999999994
42
-0.41421356237309503
10
302.27499999999998
20
-79.224999999999994
0
LWPOLYLINE
5
102
100
AcDbEntity
8
0
100
AcDbPolyline
90
8
70
1
43
0.0
10
233.21875000000003
20
-92.224999999999994
10
233.21875000000003
20
-79.224999999999994
42
0.41421356237309503
10
232.71875
20
-78.724999999999994
10
219.71875
20
-78.724999999999994
42
0.41421356237309503
10
219.21875
20
-79.224999999999994
10
219.21875
20
-92.224999999999994
42
0.41421356237309503
10
219.71875
20
-92.725000000000009
10
232.71875
20
-92.725000000000009
42
0.41421356237309503
0
LWPOLYLINE
5
103
100
AcDbEntity
8
0
100
AcDbPolyline
90
8
70
1
43
0.0
10
58.88750000000001
20
-59.675000000000004
10
45.887500000000003
20
-59.675000000000004
42
0.41421356237309503
10
45.387500000000003
20
-60.174999999999997
10
45.387500000000003
20
-73.174999999999997
42
0.41421356237309503
10
45.887500000000003
20
-73.674999999999997
10
58.88750000000001
20
-73.674999999999997
42
0.41421356237309503
10
59.387500000000003
20
-73.174999999999997
10
59.387500000000003
20
-60.174999999999997
42
0.41421356237309503
0
LWPOLYLINE
5
104
100
AcDbEntity
8
0
100
AcDbPolyline
90
8
70
1
43
0.0
10
263.67500000000001
20
-92.724999999999994
10
250.67500000000001
20
-92.725000000000009
42
-0.41421356237309503
10
250.17500000000001
20
-92.224999999999994
10
250.17500000000001
20
-79.224999999999994
42
-0.41421356237309503
10
250.67500000000001
20
-78.724999999999994
10
263.67500000000001
20
-78.724999999999994
42
-0.41421356237309503
10
264.17500000000007
20
-79.224999999999994
10
264.17500000000007
20
-92.224999999999994
42
-0.41421356237309503
0
LWPOLYLINE
5
105
100
AcDbEntity
8
0
100
AcDbPolyline
90
8
70
1
43
0.0
10
301.77499999999998
20
-54.625
10
288.77499999999998
20
-54.625000000000014
42
-0.41421356237309503
10
288.27499999999998
20
-54.125000000000007
10
288.27499999999998
20
-41.125
42
-0.41421356237309503
10
288.77499999999998
20
-40.625
10
301.77499999999998
20
-40.624999999999993
42
-0.41421356237309503
10
302.27499999999998
20
-41.125
10
302.27499999999998
20
-54.125000000000007
42
-0.41421356237309503
0
LWPOLYLINE
5
106
100
AcDbEntity
8
0
100
AcDbPolyline
90
8
70
1
43
0.0
10
12.993249999999998
20
-75.174999999999997
42
-0.41421356237309503
10
12.49325
20
-75.674999999999997
10
6.4932500000000006
20
-75.674999999999997
42
-0.41421356237309503
10
5.9932499999999997
20
-75.174999999999997
10
5.9932500000000024
20
-61.174999999999997
42
-0.41421356237309503
10
6.4932500000000006
20
-60.674999999999997
10
12.49325
20
-60.674999999999997
42
-0.41421356237309503
10
12.99325
20
-61.174999999999997
0
LWPOLYLINE
5
107
100
AcDbEntity
8
0
100
AcDbPolyline
90
8
70
1
43
0.0
10
36.869250000000001
20
-75.174999999999997
42
-0.41421356237309503
10
36.369250000000001
20
-75.674999999999997
10
30.369250000000001
20
-75.674999999999997
42
-0.41421356237309503
10
29.869250000000001
20
-75.174999999999997
10
29.869250000000001
20
-61.174999999999997
42
-0.41421356237309503
10
30.369250000000001
20
-60.674999999999997
10
36.369250000000001
20
-60.674999999999997
42
-0.41421356237309503
10
36.869250000000008
20
-61.174999999999997
0
LINE
5
108
100
AcDbEntity
8
0
100
AcDbLine
10
304.80000000000007
20
-2.9999999999999991
30
0
11
304.80000000000007
21
-92.25
31
0
0
LINE
5
109
100
AcDbEntity
8
0
100
AcDbLine
10
0
20
-3
30
0
11
0
21
-92.249999999999972
31
0
0
LWPOLYLINE
5
110
100
AcDbEntity
8
0
100
AcDbPolyline
90
8
70
1
43
0.0
10
14.431250000000002
20
-73.174999999999997
10
14.431250000000002
20
-60.174999999999997
42
-0.41421356237309503
10
14.93125
20
-59.675000000000004
10
27.931249999999999
20
-59.675000000000004
42
-0.41421356237309503
10
28.431250000000002
20
-60.174999999999997
10
28.431249999999999
20
-73.174999999999997
42
-0.41421356237309503
10
27.931249999999999
20
-73.674999999999997
10
14.93125
20
-73.674999999999997
42
-0.41421356237309503
0
LWPOLYLINE
5
111
100
AcDbEntity
8
0
100
AcDbPolyline
90
8
70
1
43
0.0
10
83.487499999999983
20
-60.174999999999997
42
-0.41421356237309503
10
83.987499999999997
20
-59.675000000000004
10
96.987500000000011
20
-59.674999999999997
42
-0.41421356237309503
10
97.487500000000011
20
-60.174999999999997
10
97.487500000000011
20
-73.174999999999997
42
-0.41421356237309503
10
96.987500000000011
20
-73.674999999999997
10
83.987499999999997
20
-73.675000000000011
42
-0.41421356237309503
10
83.487500000000011
20
-73.174999999999997
0
LWPOLYLINE
5
112
100
AcDbEntity
8
0
100
AcDbPolyline
90
8
70
1
43
0.0
10
78.4375
20
-73.174999999999997
10
78.4375
20
-60.174999999999997
42
0.41421356237309503
10
77.9375
20
-59.675000000000004
10
64.9375
20
-59.675000000000004
42
0.41421356237309503
10
64.4375
20
-60.174999999999997
10
64.4375
20
-73.174999999999997
42
0.41421356237309503
10
64.9375
20
-73.674999999999997
10
77.9375
20
-73.674999999999997
42
0.41421356237309503
0
LWPOLYLINE
5
113
100
AcDbEntity
8
0
100
AcDbPolyline
90
8
70
1
43
0.0
10
154.13749999999999
20
-59.675000000000004
10
141.13749999999999
20
-59.675000000000004
42
0.41421356237309503
10
140.63749999999999
20
-60.174999999999997
10
140.63749999999999
20
-73.174999999999997
42
0.41421356237309503
10
141.13749999999999
20
-73.674999999999997
10
154.13749999999999
20
-73.674999999999997
42
0.41421356237309503
10
154.63750000000002
20
-73.174999999999997
10
154.63750000000002
20
-60.174999999999997
42
0.41421356237309503
0
LWPOLYLINE
5
114
100
AcDbEntity
8
0
100
AcDbPolyline
90
8
70
1
43
0.0
10
192.23750000000001
20
-73.674999999999997
10
179.23750000000001
20
-73.675000000000011
42
-0.41421356237309503
10
178.73750000000001
20
-73.174999999999997
10
178.73750000000001
20
-60.174999999999997
42
-0.41421356237309503
10
179.23750000000001
20
-59.675000000000004
10
192.23750000000001
20
-59.674999999999997
42
-0.41421356237309503
10
192.73750000000004
20
-60.174999999999997
10
192.73750000000004
20
-73.174999999999997
42
-0.41421356237309503
0
LWPOLYLINE
5
115
100
AcDbEntity
8
0
100
AcDbPolyline
90
8
70
1
43
0.0
10
173.1875
20
-73.674999999999997
10
160.1875
20
-73.675000000000011
42
-0.41421356237309503
10
159.6875
20
-73.174999999999997
10
159.6875
20
-60.174999999999997
42
-0.41421356237309503
10
160.1875
20
-59.675000000000004
10
173.1875
20
-59.674999999999997
42
-0.41421356237309503
10
173.68750000000003
20
-60.174999999999997
10
173.68750000000003
20
-73.174999999999997
42
-0.41421356237309503
0
LWPOLYLINE
5
116
100
AcDbEntity
8
0
100
AcDbPolyline
90
8
70
1
43
0.0
10
198.28749999999999
20
-73.675000000000011
42
-0.41421356237309503
10
197.78749999999999
20
-73.174999999999997
10
197.78749999999999
20
-60.174999999999997
42
-0.41421356237309503
10
198.28749999999999
20
-59.675000000000004
10
211.28749999999999
20
-59.674999999999997
42
-0.41421356237309503
10
211.78750000000002
20
-60.174999999999997
10
211.78750000000002
20
-73.174999999999997
42
-0.41421356237309503
10
211.28749999999999
20
-73.674999999999997
0
LWPOLYLINE
5
117
100
AcDbEntity
8
0
100
AcDbPolyline
90
8
70
1
43
0.0
10
216.83750000000003
20
-73.174999999999997
10
216.83750000000001
20
-60.174999999999997
42
-0.41421356237309503
10
217.33750000000001
20
-59.675000000000004
10
230.33750000000001
20
-59.674999999999997
42
-0.41421356237309503
10
230.83750000000003
20
-60.174999999999997
10
230.83750000000003
20
-73.174999999999997
42
-0.41421356237309503
10
230.33750000000001
20
-73.674999999999997
10
217.33750000000001
20
-73.675000000000011
42
-0.41421356237309503
0
LWPOLYLINE
5
118
100
AcDbEntity
8
0
100
AcDbPolyline
90
8
70
1
43
0.0
10
243.03125
20
-73.174999999999997
10
243.03125
20
-60.174999999999997
42
-0.41421356237309503
10
243.53125000000003
20
-59.675000000000004
10
256.53125
20
-59.674999999999997
42
-0.41421356237309503
10
257.03125000000006
20
-60.174999999999997
10
257.03125000000006
20
-73.174999999999997
42
-0.41421356237309503
10
256.53125
20
-73.674999999999997
10
243.53125000000003
20
-73.675000000000011
42
-0.41421356237309503
0
LWPOLYLINE
5
119
100
AcDbEntity
8
0
100
AcDbPolyline
90
8
70
1
43
0.0
10
102.53749999999999
20
-60.174999999999997
42
-0.41421356237309503
10
103.03750000000001
20
-59.675000000000004
10
116.03749999999999
20
-59.674999999999997
42
-0.41421356237309503
10
116.53750000000001
20
-60.174999999999997
10
116.53749999999999
20
-73.174999999999997
42
-0.41421356237309503
10
116.03749999999999
20
-73.674999999999997
10
103.03750000000001
20
-73.675000000000011
42
-0.41421356237309503
10
102.53749999999999
20
-73.174999999999997
0
LWPOLYLINE
5
120
100
AcDbEntity
8
0
100
AcDbPolyline
90
8
70
1
43
0.0
10
122.08750000000002
20
-73.675000000000011
42
-0.41421356237309503
10
121.58750000000001
20
-73.174999999999997
10
121.58750000000001
20
-60.174999999999997
42
-0.41421356237309503
10
122.08750000000002
20
-59.675000000000004
10
135.08750000000001
20
-59.674999999999997
42
-0.41421356237309503
10
135.58750000000001
20
-60.174999999999997
10
135.58750000000001
20
-73.174999999999997
42
-0.41421356237309503
10
135.08750000000001
20
-73.674999999999997
0
LWPOLYLINE
5
121
100
AcDbEntity
8
0
100
AcDbPolyline
90
8
70
1
43
0.0
10
261.13125000000002
20
-73.675000000000011
42
-0.41421356237309503
10
260.63125000000002
20
-73.174999999999997
10
260.63125000000002
20
-60.174999999999997
42
-0.41421356237309503
10
261.13125000000002
20
-59.675000000000004
10
262.13125000000002
20
-59.674999999999997
42
-0.41421356237309503
10
262.63125000000002
20
-60.174999999999997
10
262.63125000000008
20
-73.174999999999997
42
-0.41421356237309503
10
262.13125000000002
20
-73.674999999999997
0
LWPOLYLINE
5
122
100
AcDbEntity
8
0
100
AcDbPolyline
90
8
70
1
43
0.0
10
288.27499999999998
20
-60.174999999999997
42
-0.41421356237309503
10
288.77499999999998
20
-59.675000000000004
10
301.77499999999998
20
-59.674999999999997
42
-0.41421356237309503
10
302.27499999999998
20
-60.174999999999997
10
302.27499999999998
20
-73.174999999999997
42
-0.41421356237309503
10
301.77499999999998
20
-73.674999999999997
10
288.77499999999998
20
-73.675000000000011
42
-0.41421356237309503
10
288.27499999999998
20
-73.174999999999997
0
LWPOLYLINE
5
123
100
AcDbEntity
8
0
100
AcDbPolyline
90
8
70
1
43
0.0
10
4.9062500000000018
20
-79.224999999999994
42
-0.41421356237309503
10
5.4062499999999991
20
-78.724999999999994
10
18.40625
20
-78.724999999999994
42
-0.41421356237309503
10
18.906250000000004
20
-79.224999999999994
10
18.906250000000007
20
-92.224999999999994
42
-0.41421356237309503
10
18.40625
20
-92.724999999999994
10
5.40625
20
-92.725000000000009
42
-0.41421356237309503
10
4.90625
20
-92.224999999999994
0
LWPOLYLINE
5
124
100
AcDbEntity
8
0
100
AcDbPolyline
90
8
70
1
43
0.0
10
42.21875
20
-92.724999999999994
10
29.21875
20
-92.725000000000009
42
-0.41421356237309503
10
28.71875
20
-92.224999999999994
10
28.71875
20
-79.224999999999994
42
-0.41421356237309503
10
29.21875
20
-78.724999999999994
10
42.21875
20
-78.724999999999994
42
-0.41421356237309503
10
42.718750000000007
20
-79.224999999999994
10
42.718750000000007
20
-92.224999999999994
42
-0.41421356237309503
0
LWPOLYLINE
5
125
100
AcDbEntity
8
0
100
AcDbPolyline
90
8
70
1
43
0.0
10
237.43125000000003
20
-73.174999999999997
10
237.43125000000003
20
-60.174999999999997
42
-0.41421356237309503
10
237.93125000000003
20
-59.675000000000004
10
238.93125000000001
20
-59.674999999999997
42
-0.41421356237309503
10
239.43125000000003
20
-60.174999999999997
10
239.43125000000003
20
-73.174999999999997
42
-0.41421356237309503
10
238.93125000000001
20
-73.674999999999997
10
237.93125000000003
20
-73.675000000000011
42
-0.41421356237309503
0
LWPOLYLINE
5
126
100
AcDbEntity
8
0
100
AcDbPolyline
90
8
70
1
43
0.0
10
123.96875000000001
20
-79.224999999999994
42
-0.41421356237309503
10
124.46875
20
-78.724999999999994
10
137.46875
20
-78.724999999999994
42
-0.41421356237309503
10
137.96875000000003
20
-79.224999999999994
10
137.96875000000003
20
-92.224999999999994
42
-0.41421356237309503
10
137.46875
20
-92.725000000000009
10
124.46875
20
-92.725000000000009
42
-0.41421356237309503
10
123.96875000000001
20
-92.224999999999994
0
LWPOLYLINE
5
127
100
AcDbEntity
8
0
100
AcDbPolyline
90
8
70
1
43
0.0
10
52.531250000000007
20
-92.224999999999994
10
52.531250000000007
20
-79.224999999999994
42
-0.41421356237309503
10
53.031250000000007
20
-78.724999999999994
10
66.03125
20
-78.724999999999994
42
-0.41421356237309503
10
66.53125
20
-79.224999999999994
10
66.531250000000014
20
-92.224999999999994
42
-0.41421356237309503
10
66.03125
20
-92.724999999999994
10
53.031250000000007
20
-92.725000000000009
42
-0.41421356237309503
0
LWPOLYLINE
5
128
100
AcDbEntity
8
0
100
AcDbPolyline
90
8
70
1
43
0.0
10
283.22500000000002
20
-73.174999999999997
10
283.22500000000002
20
-60.174999999999997
42
0.41421356237309503
10
282.72500000000002
20
-59.675000000000004
10
269.72500000000002
20
-59.675000000000004
42
0.41421356237309503
10
269.22500000000002
20
-60.174999999999997
10
269.22500000000002
20
-73.174999999999997
42
0.41421356237309503
10
269.72500000000002
20
-73.674999999999997
10
282.72500000000002
20
-73.674999999999997
42
0.41421356237309503
0
LWPOLYLINE
5
129
100
AcDbEntity
8
0
100
AcDbPolyline
90
8
70
1
43
0.0
10
98.275000000000006
20
-16.525000000000006
42
-0.41421356237309503
10
97.775000000000006
20
-16.024999999999999
10
97.775000000000006
20
-3.0249999999999999
42
-0.41421356237309503
10
98.275000000000006
20
-2.5249999999999999
10
111.27500000000001
20
-2.5249999999999928
42
-0.41421356237309503
10
111.77500000000002
20
-3.0249999999999999
10
111.77500000000002
20
-16.024999999999999
42
-0.41421356237309503
10
111.27500000000001
20
-16.524999999999999
0
LWPOLYLINE
5
130
100
AcDbEntity
8
0
100
AcDbPolyline
90
8
70
1
43
0.0
10
149.375
20
-2.5249999999999999
10
136.375
20
-2.5249999999999999
42
0.41421356237309503
10
135.875
20
-3.0249999999999999
10
135.875
20
-16.024999999999999
42
0.41421356237309503
10
136.375
20
-16.524999999999999
10
149.375
20
-16.525000000000002
42
0.41421356237309503
10
149.875
20
-16.024999999999999
10
149.875
20
-3.0249999999999999
42
0.41421356237309503
0
LWPOLYLINE
5
131
100
AcDbEntity
8
0
100
AcDbPolyline
90
8
70
1
43
0.0
10
41.125
20
-16.524999999999999
42
-0.41421356237309503
10
40.625
20
-16.024999999999999
10
40.625
20
-3.0249999999999999
42
-0.41421356237309503
10
41.125
20
-2.5249999999999999
10
54.125000000000007
20
-2.5250000000000017
42
-0.41421356237309503
10
54.625
20
-3.0249999999999999
10
54.625
20
-16.024999999999999
42
-0.41421356237309503
10
54.125000000000007
20
-16.524999999999999
0
LWPOLYLINE
5
132
100
AcDbEntity
8
0
100
AcDbPolyline
90
8
70
1
43
0.0
10
92.724999999999994
20
-16.024999999999999
10
92.725000000000009
20
-3.0249999999999999
42
0.41421356237309503
10
92.224999999999994
20
-2.5249999999999999
10
79.224999999999994
20
-2.5249999999999999
42
0.41421356237309503
10
78.724999999999994
20
-3.0249999999999999
10
78.724999999999994
20
-16.024999999999999
42
0.41421356237309503
10
79.224999999999994
20
-16.525000000000002
10
92.224999999999994
20
-16.525000000000002
42
0.41421356237309503
0
LWPOLYLINE
5
133
100
AcDbEntity
8
0
100
AcDbPolyline
90
8
70
1
43
0.0
10
60.174999999999997
20
-16.524999999999999
42
-0.41421356237309503
10
59.675000000000004
20
-16.024999999999999
10
59.675000000000004
20
-3.0249999999999999
42
-0.41421356237309503
10
60.174999999999997
20
-2.5249999999999999
10
73.174999999999997
20
-2.5250000000000017
42
-0.41421356237309503
10
73.674999999999997
20
-3.0249999999999999
10
73.674999999999997
20
-16.024999999999999
42
-0.41421356237309503
10
73.174999999999997
20
-16.525000000000002
0
LWPOLYLINE
5
134
100
AcDbEntity
8
0
100
AcDbPolyline
90
8
70
1
43
0.0
10
130.82499999999999
20
-16.024999999999999
42
-0.41421356237309503
10
130.32499999999999
20
-16.525000000000002
10
117.32500000000002
20
-16.525000000000006
42
-0.41421356237309503
10
116.82500000000002
20
-16.024999999999999
10
116.82500000000002
20
-3.0249999999999999
42
-0.41421356237309503
10
117.32500000000002
20
-2.5249999999999999
10
130.32499999999999
20
-2.5249999999999928
42
-0.41421356237309503
10
130.82499999999999
20
-3.0249999999999999
0
LWPOLYLINE
5
135
100
AcDbEntity
8
0
100
AcDbPolyline
90
8
70
1
43
0.0
10
2.5249999999999999
20
-16.024999999999999
10
2.5249999999999999
20
-3.0249999999999999
42
-0.41421356237309503
10
3.0249999999999999
20
-2.5249999999999999
10
16.024999999999999
20
-2.5249999999999995
42
-0.41421356237309503
10
16.524999999999999
20
-3.0249999999999999
10
16.525000000000002
20
-16.024999999999999
42
-0.41421356237309503
10
16.024999999999999
20
-16.524999999999999
10
3.0249999999999999
20
-16.525000000000002
42
-0.41421356237309503
0
LWPOLYLINE
5
136
100
AcDbEntity
8
0
100
AcDbPolyline
90
8
70
1
43
0.0
10
35.575000000000003
20
-16.024999999999999
42
-0.41421356237309503
10
35.075000000000003
20
-16.525000000000002
10
22.074999999999999
20
-16.524999999999999
42
-0.41421356237309503
10
21.575000000000003
20
-16.024999999999999
10
21.575000000000003
20
-3.0249999999999999
42
-0.41421356237309503
10
22.074999999999999
20
-2.5249999999999999
10
35.075000000000003
20
-2.5250000000000017
42
-0.41421356237309503
10
35.575000000000003
20
-3.0249999999999999
0
LWPOLYLINE
5
137
100
AcDbEntity
8
0
100
AcDbPolyline
90
8
70
1
43
0.0
10
195.90625000000003
20
-92.725000000000009
42
-0.41421356237309503
10
195.40625000000003
20
-92.224999999999994
10
195.40625000000003
20
-79.224999999999994
42
-0.41421356237309503
10
195.90625000000003
20
-78.724999999999994
10
208.90625
20
-78.724999999999994
42
-0.41421356237309503
10
209.40625
20
-79.224999999999994
10
209.40625
20
-92.224999999999994
42
-0.41421356237309503
10
208.90625
20
-92.725000000000009
0
LWPOLYLINE
5
138
100
AcDbEntity
8
0
100
AcDbPolyline
90
8
70
1
43
0.0
10
275.13799999999998
20
-4.0250000000000004
42
-0.41421356237309503
10
275.63800000000003
20
-3.5250000000000008
10
281.63799999999998
20
-3.5249999999999937
42
-0.41421356237309503
10
282.13799999999998
20
-4.0250000000000004
10
282.13799999999998
20
-18.024999999999999
42
-0.41421356237309503
10
281.63799999999998
20
-18.524999999999999
10
275.63800000000003
20
-18.525000000000006
42
-0.41421356237309503
10
275.13799999999998
20
-18.024999999999999
0
LWPOLYLINE
5
139
100
AcDbEntity
8
0
100
AcDbPolyline
90
8
70
1
43
0.0
10
244.62500000000003
20
-2.5249999999999928
42
-0.41421356237309503
10
245.12500000000003
20
-3.0249999999999999
10
245.12500000000003
20
-16.024999999999999
42
-0.41421356237309503
10
244.62500000000003
20
-16.525000000000002
10
231.625
20
-16.525000000000006
42
-0.41421356237309503
10
231.125
20
-16.024999999999999
10
231.125
20
-3.0249999999999999
42
-0.41421356237309503
10
231.625
20
-2.5249999999999999
0
LWPOLYLINE
5
140
100
AcDbEntity
8
0
100
AcDbPolyline
90
8
70
1
43
0.0
10
225.57500000000002
20
-16.524999999999999
10
212.57499999999999
20
-16.525000000000006
42
-0.41421356237309503
10
212.07499999999999
20
-16.024999999999999
10
212.07499999999999
20
-3.0249999999999999
42
-0.41421356237309503
10
212.57499999999999
20
-2.5249999999999999
10
225.57500000000002
20
-2.5249999999999928
42
-0.41421356237309503
10
226.07500000000002
20
-3.0249999999999999
10
226.07500000000002
20
-16.024999999999999
42
-0.41421356237309503
0
LWPOLYLINE
5
141
100
AcDbEntity
8
0
100
AcDbPolyline
90
8
70
1
43
0.0
10
206.52500000000003
20
-2.5249999999999999
10
193.52500000000003
20
-2.5249999999999999
42
0.41421356237309503
10
193.02500000000003
20
-3.0249999999999999
10
193.02500000000003
20
-16.024999999999999
42
0.41421356237309503
10
193.52500000000003
20
-16.524999999999999
10
206.52500000000003
20
-16.525000000000002
42
0.41421356237309503
10
207.02500000000003
20
-16.024999999999999
10
207.02500000000003
20
-3.0249999999999999
42
0.41421356237309503
0
LWPOLYLINE
5
142
100
AcDbEntity
8
0
100
AcDbPolyline
90
8
70
1
43
0.0
10
168.42500000000001
20
-16.524999999999999
10
155.42500000000001
20
-16.525000000000006
42
-0.41421356237309503
10
154.92500000000001
20
-16.024999999999999
10
154.92500000000001
20
-3.0249999999999999
42
-0.41421356237309503
10
155.42500000000001
20
-2.5249999999999999
10
168.42500000000001
20
-2.5249999999999928
42
-0.41421356237309503
10
168.92500000000001
20
-3.0249999999999999
10
168.92500000000001
20
-16.024999999999999
42
-0.41421356237309503
0
LWPOLYLINE
5
143
100
AcDbEntity
8
0
100
AcDbPolyline
90
8
70
1
43
0.0
10
187.47499999999999
20
-2.5249999999999999
10
174.47500000000002
20
-2.5249999999999999
42
0.41421356237309503
10
173.97500000000002
20
-3.0249999999999999
10
173.97500000000002
20
-16.024999999999999
42
0.41421356237309503
10
174.47500000000002
20
-16.525000000000002
10
187.47499999999999
20
-16.525000000000002
42
0.41421356237309503
10
187.97499999999999
20
-16.024999999999999
10
187.97499999999999
20
-3.0249999999999999
42
0.41421356237309503
0
LWPOLYLINE
5
144
100
AcDbEntity
8
0
100
AcDbPolyline
90
8
70
1
43
0.0
10
259.69999999999999
20
-16.024999999999999
10
259.69999999999999
20
-3.0249999999999999
42
-0.41421356237309503
10
260.19999999999999
20
-2.5249999999999999
10
273.19999999999999
20
-2.5249999999999928
42
-0.41421356237309503
10
273.69999999999999
20
-3.0249999999999999
10
273.69999999999999
20
-16.024999999999999
42
-0.41421356237309503
10
273.19999999999999
20
-16.524999999999999
10
260.19999999999999
20
-16.525000000000006
42
-0.41421356237309503
0
LWPOLYLINE
5
145
100
AcDbEntity
8
0
100
AcDbPolyline
90
8
70
1
43
0.0
10
257.76200000000006
20
-3.5250000000000004
10
251.762
20
-3.5250000000000008
42
0.41421356237309503
10
251.262
20
-4.0250000000000004
10
251.262
20
-18.024999999999999
42
0.41421356237309503
10
251.762
20
-18.524999999999999
10
257.76200000000006
20
-18.524999999999999
42
0.41421356237309503
10
258.26200000000006
20
-18.024999999999999
10
258.26200000000006
20
-4.0250000000000004
42
0.41421356237309503
0
LWPOLYLINE
5
146
100
AcDbEntity
8
0
100
AcDbPolyline
90
8
70
1
43
0.0
10
63.650000000000006
20
-21.575000000000003
42
-0.41421356237309503
10
64.150000000000006
20
-22.074999999999999
10
64.150000000000006
20
-35.075000000000003
42
-0.41421356237309503
10
63.650000000000006
20
-35.575000000000003
10
50.650000000000006
20
-35.575000000000003
42
-0.41421356237309503
10
50.150000000000006
20
-35.075000000000003
10
50.150000000000006
20
-22.074999999999999
42
-0.41421356237309503
10
50.650000000000006
20
-21.575000000000003
0
LWPOLYLINE
5
147
100
AcDbEntity
8
0
100
AcDbPolyline
90
8
70
1
43
0.0
10
82.700000000000017
20
-21.575000000000003
10
69.700000000000003
20
-21.575000000000003
42
0.41421356237309503
10
69.200000000000003
20
-22.074999999999999
10
69.200000000000003
20
-35.075000000000003
42
0.41421356237309503
10
69.700000000000003
20
-35.575000000000003
10
82.700000000000017
20
-35.575000000000003
42
0.41421356237309503
10
83.200000000000003
20
-35.075000000000003
10
83.200000000000017
20
-22.074999999999999
42
0.41421356237309503
0
LWPOLYLINE
5
148
100
AcDbEntity
8
0
100
AcDbPolyline
90
8
70
1
43
0.0
10
26.387499999999999
20
-35.575000000000003
10
25.387500000000003
20
-35.575000000000003
42
-0.41421356237309503
10
24.887500000000003
20
-35.075000000000003
10
24.887500000000003
20
-22.074999999999999
42
-0.41421356237309503
10
25.387500000000003
20
-21.575000000000003
10
26.387499999999999
20
-21.575000000000003
42
-0.41421356237309503
10
26.887499999999996
20
-22.074999999999999
10
26.887499999999996
20
-35.075000000000003
42
-0.41421356237309503
0
LWPOLYLINE
5
149
100
AcDbEntity
8
0
100
AcDbPolyline
90
8
70
1
43
0.0
10
7.2875000000000023
20
-22.074999999999999
42
-0.41421356237309503
10
7.7875000000000005
20
-21.575000000000003
10
20.787500000000001
20
-21.575000000000003
42
-0.41421356237309503
10
21.287500000000001
20
-22.074999999999999
10
21.287500000000001
20
-35.075000000000003
42
-0.41421356237309503
10
20.787500000000001
20
-35.575000000000003
10
7.7875000000000005
20
-35.575000000000003
42
-0.41421356237309503
10
7.2874999999999996
20
-35.075000000000003
0
LWPOLYLINE
5
150
100
AcDbEntity
8
0
100
AcDbPolyline
90
8
70
1
43
0.0
10
102.25000000000001
20
-35.075000000000003
10
102.25000000000001
20
-22.074999999999999
42
0.41421356237309503
10
101.75
20
-21.575000000000003
10
88.75
20
-21.575000000000003
42
0.41421356237309503
10
88.250000000000014
20
-22.074999999999999
10
88.25
20
-35.075000000000003
42
0.41421356237309503
10
88.75
20
-35.575000000000003
10
101.75
20
-35.575000000000003
42
0.41421356237309503
0
LWPOLYLINE
5
151
100
AcDbEntity
8
0
100
AcDbPolyline
90
8
70
1
43
0.0
10
45.100000000000009
20
-35.075000000000003
10
45.099999999999994
20
-22.074999999999999
42
0.41421356237309503
10
44.600000000000001
20
-21.575000000000003
10
31.600000000000001
20
-21.575000000000003
42
0.41421356237309503
10
31.100000000000001
20
-22.074999999999999
10
31.100000000000001
20
-35.075000000000003
42
0.41421356237309503
10
31.600000000000001
20
-35.575000000000003
10
44.600000000000001
20
-35.575000000000003
42
0.41421356237309503
0
LWPOLYLINE
5
152
100
AcDbEntity
8
0
100
AcDbPolyline
90
8
70
1
43
0.0
10
288.77499999999998
20
-16.525000000000006
42
-0.41421356237309503
10
288.27499999999998
20
-16.024999999999999
10
288.27499999999998
20
-3.0249999999999999
42
-0.41421356237309503
10
288.77499999999998
20
-2.5249999999999999
10
301.77499999999998
20
-2.5249999999999928
42
-0.41421356237309503
10
302.27499999999998
20
-3.0249999999999999
10
302.27499999999998
20
-16.024999999999999
42
-0.41421356237309503
10
301.77499999999998
20
-16.525000000000002
0
LWPOLYLINE
5
153
100
AcDbEntity
8
0
100
AcDbPolyline
90
8
70
1
43
0.0
10
2.1875000000000004
20
-35.575000000000003
42
-0.41421356237309503
10
1.6875000000000007
20
-35.075000000000003
10
1.6875000000000022
20
-22.074999999999999
42
-0.41421356237309503
10
2.1875000000000004
20
-21.575000000000003
10
3.1875000000000009
20
-21.575000000000003
42
-0.41421356237309503
10
3.6875000000000009
20
-22.074999999999999
10
3.6874999999999991
20
-35.075000000000003
42
-0.41421356237309503
10
3.1875000000000009
20
-35.575000000000003
0
LWPOLYLINE
5
154
100
AcDbEntity
8
0
100
AcDbPolyline
90
8
70
1
43
0.0
10
203.05000000000004
20
-35.57500000000001
42
-0.41421356237309503
10
202.55000000000001
20
-35.075000000000003
10
202.55000000000001
20
-22.074999999999999
42
-0.41421356237309503
10
203.05000000000004
20
-21.575000000000003
10
216.05000000000004
20
-21.574999999999992
42
-0.41421356237309503
10
216.55000000000001
20
-22.074999999999999
10
216.55000000000004
20
-35.075000000000003
42
-0.41421356237309503
10
216.05000000000004
20
-35.575000000000003
0
LWPOLYLINE
5
155
100
AcDbEntity
8
0
100
AcDbPolyline
90
8
70
1
43
0.0
10
183.5
20
-22.074999999999999
42
-0.41421356237309503
10
184.00000000000003
20
-21.575000000000003
10
197.00000000000003
20
-21.574999999999992
42
-0.41421356237309503
10
197.50000000000003
20
-22.074999999999999
10
197.50000000000003
20
-35.075000000000003
42
-0.41421356237309503
10
197.00000000000003
20
-35.575000000000003
10
184.00000000000003
20
-35.57500000000001
42
-0.41421356237309503
10
183.5
20
-35.075000000000003
0
LWPOLYLINE
5
156
100
AcDbEntity
8
0
100
AcDbPolyline
90
8
70
1
43
0.0
10
126.35000000000002
20
-22.074999999999999
42
-0.41421356237309503
10
126.85000000000001
20
-21.575000000000003
10
139.84999999999999
20
-21.574999999999992
42
-0.41421356237309503
10
140.34999999999999
20
-22.074999999999999
10
140.34999999999999
20
-35.075000000000003
42
-0.41421356237309503
10
139.84999999999999
20
-35.575000000000003
10
126.85000000000001
20
-35.57500000000001
42
-0.41421356237309503
10
126.34999999999999
20
-35.075000000000003
0
LWPOLYLINE
5
157
100
AcDbEntity
8
0
100
AcDbPolyline
90
8
70
1
43
0.0
10
178.44999999999999
20
-35.075000000000003
10
178.44999999999999
20
-22.074999999999999
42
0.41421356237309503
10
177.94999999999999
20
-21.575000000000003
10
164.95000000000002
20
-21.575000000000003
42
0.41421356237309503
10
164.44999999999999
20
-22.074999999999999
10
164.44999999999999
20
-35.075000000000003
42
0.41421356237309503
10
164.95000000000002
20
-35.575000000000003
10
177.94999999999999
20
-35.575000000000003
42
0.41421356237309503
0
LWPOLYLINE
5
158
100
AcDbEntity
8
0
100
AcDbPolyline
90
8
70
1
43
0.0
10
235.60000000000002
20
-35.075000000000003
10
235.60000000000002
20
-22.074999999999999
42
0.41421356237309503
10
235.10000000000002
20
-21.575000000000003
10
222.10000000000002
20
-21.575000000000003
42
0.41421356237309503
10
221.59999999999999
20
-22.074999999999999
10
221.59999999999999
20
-35.075000000000003
42
0.41421356237309503
10
222.10000000000002
20
-35.575000000000003
10
235.10000000000002
20
-35.575000000000003
42
0.41421356237309503
0
LWPOLYLINE
5
159
100
AcDbEntity
8
0
100
AcDbPolyline
90
8
70
1
43
0.0
10
254.65000000000003
20
-35.075000000000003
10
254.65000000000003
20
-22.074999999999999
42
0.41421356237309503
10
254.15000000000003
20
-21.575000000000003
10
241.15000000000003
20
-21.575000000000003
42
0.41421356237309503
10
240.65000000000001
20
-22.074999999999999
10
240.65000000000001
20
-35.075000000000003
42
0.41421356237309503
10
241.15000000000003
20
-35.575000000000003
10
254.15000000000003
20
-35.575000000000003
42
0.41421356237309503
0
LWPOLYLINE
5
160
100
AcDbEntity
8
0
100
AcDbPolyline
90
8
70
1
43
0.0
10
107.30000000000001
20
-22.074999999999999
42
-0.41421356237309503
10
107.80000000000001
20
-21.575000000000003
10
120.8
20
-21.574999999999992
42
-0.41421356237309503
10
121.30000000000001
20
-22.074999999999999
10
121.29999999999998
20
-35.075000000000003
42
-0.41421356237309503
10
120.8
20
-35.575000000000003
10
107.80000000000001
20
-35.57500000000001
42
-0.41421356237309503
10
107.30000000000001
20
-35.075000000000003
0
LWPOLYLINE
5
161
100
AcDbEntity
8
0
100
AcDbPolyline
90
8
70
1
43
0.0
10
159.40000000000001
20
-35.075000000000003
42
-0.41421356237309503
10
158.90000000000001
20
-35.575000000000003
10
145.90000000000001
20
-35.57500000000001
42
-0.41421356237309503
10
145.40000000000001
20
-35.075000000000003
10
145.40000000000003
20
-22.074999999999999
42
-0.41421356237309503
10
145.90000000000001
20
-21.575000000000003
10
158.90000000000001
20
-21.574999999999992
42
-0.41421356237309503
10
159.40000000000001
20
-22.074999999999999
0
LWPOLYLINE
5
162
100
AcDbEntity
8
0
100
AcDbPolyline
90
8
70
1
43
0.0
10
277.96249999999998
20
-35.575000000000003
10
264.96249999999998
20
-35.57500000000001
42
-0.41421356237309503
10
264.46249999999998
20
-35.075000000000003
10
264.46249999999998
20
-22.074999999999999
42
-0.41421356237309503
10
264.96249999999998
20
-21.575000000000003
10
277.96249999999998
20
-21.574999999999992
42
-0.41421356237309503
10
278.46250000000003
20
-22.074999999999999
10
278.46250000000003
20
-35.075000000000003
42
-0.41421356237309503
0
LWPOLYLINE
5
163
100
AcDbEntity
8
0
100
AcDbPolyline
90
8
70
1
43
0.0
10
10.168749999999999
20
-54.625
42
-0.41421356237309503
10
9.6687499999999993
20
-54.125000000000007
10
9.6687500000000011
20
-41.125
42
-0.41421356237309503
10
10.168749999999999
20
-40.625
10
23.168749999999999
20
-40.625
42
-0.41421356237309503
10
23.668749999999999
20
-41.125
10
23.668749999999999
20
-54.125000000000007
42
-0.41421356237309503
10
23.168749999999999
20
-54.625
0
LWPOLYLINE
5
164
100
AcDbEntity
8
0
100
AcDbPolyline
90
8
70
1
43
0.0
10
28.768750000000001
20
-54.625
10
27.768750000000004
20
-54.625
42
-0.41421356237309503
10
27.268750000000004
20
-54.125000000000007
10
27.268750000000004
20
-41.125
42
-0.41421356237309503
10
27.768750000000004
20
-40.625
10
28.768750000000001
20
-40.625
42
-0.41421356237309503
10
29.268749999999997
20
-41.125
10
29.268749999999997
20
-54.125000000000007
42
-0.41421356237309503
0
LWPOLYLINE
5
165
100
AcDbEntity
8
0
100
AcDbPolyline
90
8
70
1
43
0.0
10
260.36250000000001
20
-21.574999999999992
42
-0.41421356237309503
10
260.86250000000001
20
-22.074999999999999
10
260.86250000000001
20
-35.075000000000003
42
-0.41421356237309503
10
260.36250000000001
20
-35.575000000000003
10
259.36250000000001
20
-35.57500000000001
42
-0.41421356237309503
10
258.86250000000001
20
-35.075000000000003
10
258.86250000000001
20
-22.074999999999999
42
-0.41421356237309503
10
259.36250000000001
20
-21.575000000000003
0
LWPOLYLINE
5
166
100
AcDbEntity
8
0
100
AcDbPolyline
90
8
70
1
43
0.0
10
49.362500000000004
20
-40.625
10
36.362499999999997
20
-40.625
42
0.41421356237309503
10
35.862499999999997
20
-41.125
10
35.862500000000004
20
-54.125000000000007
42
0.41421356237309503
10
36.362499999999997
20
-54.625
10
49.362500000000004
20
-54.625
42
0.41421356237309503
10
49.862499999999997
20
-54.125000000000007
10
49.862499999999997
20
-41.125
42
0.41421356237309503
0
LWPOLYLINE
5
167
100
AcDbEntity
8
0
100
AcDbPolyline
90
8
70
1
43
0.0
10
283.5625
20
-21.575000000000003
10
282.5625
20
-21.575000000000003
42
0.41421356237309503
10
282.0625
20
-22.074999999999999
10
282.0625
20
-35.075000000000003
42
0.41421356237309503
10
282.5625
20
-35.575000000000003
10
283.5625
20
-35.575000000000003
42
0.41421356237309503
10
284.0625
20
-35.075000000000003
10
284.06250000000006
20
-22.074999999999999
42
0.41421356237309503
0
LWPOLYLINE
5
168
100
AcDbEntity
8
0
100
AcDbPolyline
90
8
70
1
43
0.0
10
5.5687500000000014
20
-54.625
10
4.5687500000000005
20
-54.625
42
-0.41421356237309503
10
4.0687500000000014
20
-54.125000000000007
10
4.0687500000000023
20
-41.125
42
-0.41421356237309503
10
4.5687500000000005
20
-40.625
10
5.5687500000000014
20
-40.625
42
-0.41421356237309503
10
6.0687500000000005
20
-41.125
10
6.0687499999999996
20
-54.125000000000007
42
-0.41421356237309503
0
LWPOLYLINE
5
169
100
AcDbEntity
8
0
100
AcDbPolyline
90
8
70
1
43
0.0
10
301.77499999999998
20
-21.575000000000003
10
288.77499999999998
20
-21.575000000000003
42
0.41421356237309503
10
288.27499999999998
20
-22.074999999999999
10
288.27499999999998
20
-35.075000000000003
42
0.41421356237309503
10
288.77499999999998
20
-35.575000000000003
10
301.77499999999998
20
-35.575000000000003
42
0.41421356237309503
10
302.27499999999998
20
-35.075000000000003
10
302.27499999999998
20
-22.074999999999999
42
0.41421356237309503
0
LWPOLYLINE
5
170
100
AcDbEntity
8
0
100
AcDbPolyline
90
8
70
1
43
0.0
10
106.51250000000002
20
-40.625
10
93.512500000000003
20
-40.625
42
0.41421356237309503
10
93.012500000000017
20
-41.125
10
93.012499999999989
20
-54.125000000000007
42
0.41421356237309503
10
93.512500000000003
20
-54.625
10
106.51250000000002
20
-54.625
42
0.41421356237309503
10
107.01250000000002
20
-54.125000000000007
10
107.01250000000002
20
-41.125
42
0.41421356237309503
0
LWPOLYLINE
5
171
100
AcDbEntity
8
0
100
AcDbPolyline
90
8
70
1
43
0.0
10
201.76249999999999
20
-40.625
10
188.76249999999999
20
-40.625
42
0.41421356237309503
10
188.26249999999999
20
-41.125
10
188.26249999999999
20
-54.125000000000007
42
0.41421356237309503
10
188.76249999999999
20
-54.625
10
201.76249999999999
20
-54.625
42
0.41421356237309503
10
202.26249999999999
20
-54.125000000000007
10
202.26249999999999
20
-41.125
42
0.41421356237309503
0
LWPOLYLINE
5
172
100
AcDbEntity
8
0
100
AcDbPolyline
90
8
70
1
43
0.0
10
87.962500000000006
20
-54.125000000000007
10
87.96250000000002
20
-41.125
42
0.41421356237309503
10
87.46250000000002
20
-40.625
10
74.462500000000006
20
-40.625
42
0.41421356237309503
10
73.962500000000006
20
-41.125
10
73.962500000000006
20
-54.125000000000007
42
0.41421356237309503
10
74.462500000000006
20
-54.625
10
87.46250000000002
20
-54.625
42
0.41421356237309503
0
LWPOLYLINE
5
173
100
AcDbEntity
8
0
100
AcDbPolyline
90
8
70
1
43
0.0
10
144.61250000000001
20
-40.624999999999993
42
-0.41421356237309503
10
145.11250000000001
20
-41.125
10
145.11250000000001
20
-54.125000000000007
42
-0.41421356237309503
10
144.61250000000001
20
-54.625
10
131.61250000000001
20
-54.625000000000014
42
-0.41421356237309503
10
131.11250000000001
20
-54.125000000000007
10
131.11250000000001
20
-41.125
42
-0.41421356237309503
10
131.61250000000001
20
-40.625
0
LWPOLYLINE
5
174
100
AcDbEntity
8
0
100
AcDbPolyline
90
8
70
1
43
0.0
10
54.912500000000009
20
-41.125
42
-0.41421356237309503
10
55.412500000000009
20
-40.625
10
68.412499999999994
20
-40.625
42
-0.41421356237309503
10
68.912499999999994
20
-41.125
10
68.912499999999994
20
-54.125000000000007
42
-0.41421356237309503
10
68.412499999999994
20
-54.625
10
55.412500000000009
20
-54.625
42
-0.41421356237309503
10
54.912500000000009
20
-54.125000000000007
0
LWPOLYLINE
5
175
100
AcDbEntity
8
0
100
AcDbPolyline
90
8
70
1
43
0.0
10
164.16250000000002
20
-54.125000000000007
10
164.16250000000002
20
-41.125
42
0.41421356237309503
10
163.66250000000002
20
-40.625
10
150.66249999999999
20
-40.625
42
0.41421356237309503
10
150.16249999999999
20
-41.125
10
150.16249999999999
20
-54.125000000000007
42
0.41421356237309503
10
150.66249999999999
20
-54.625
10
163.66250000000002
20
-54.625
42
0.41421356237309503
0
LWPOLYLINE
5
176
100
AcDbEntity
8
0
100
AcDbPolyline
90
8
70
1
43
0.0
10
183.21250000000003
20
-54.125000000000007
10
183.21250000000003
20
-41.125
42
0.41421356237309503
10
182.71250000000003
20
-40.625
10
169.71250000000001
20
-40.625
42
0.41421356237309503
10
169.21250000000001
20
-41.125
10
169.21250000000001
20
-54.125000000000007
42
0.41421356237309503
10
169.71250000000001
20
-54.625
10
182.71250000000003
20
-54.625
42
0.41421356237309503
0
LWPOLYLINE
5
177
100
AcDbEntity
8
0
100
AcDbPolyline
90
8
70
1
43
0.0
10
112.0625
20
-41.125
42
-0.41421356237309503
10
112.56250000000001
20
-40.625
10
125.5625
20
-40.624999999999993
42
-0.41421356237309503
10
126.06250000000001
20
-41.125
10
126.0625
20
-54.125000000000007
42
-0.41421356237309503
10
125.5625
20
-54.625
10
112.56250000000001
20
-54.625000000000014
42
-0.41421356237309503
10
112.0625
20
-54.125000000000007
0
LWPOLYLINE
5
178
100
AcDbEntity
8
0
100
AcDbPolyline
90
8
70
1
43
0.0
10
221.3125
20
-54.125000000000007
42
-0.41421356237309503
10
220.8125
20
-54.625
10
207.8125
20
-54.625000000000014
42
-0.41421356237309503
10
207.31250000000003
20
-54.125000000000007
10
207.3125
20
-41.125
42
-0.41421356237309503
10
207.8125
20
-40.625
10
220.8125
20
-40.624999999999993
42
-0.41421356237309503
10
221.3125
20
-41.125
0
LWPOLYLINE
5
179
100
AcDbEntity
8
0
100
AcDbPolyline
90
8
70
1
43
0.0
10
257.81875000000002
20
-54.625000000000014
42
-0.41421356237309503
10
257.31875000000002
20
-54.125000000000007
10
257.31875000000002
20
-41.125
42
-0.41421356237309503
10
257.81875000000002
20
-40.625
10
270.81875000000002
20
-40.624999999999993
42
-0.41421356237309503
10
271.31875000000002
20
-41.125
10
271.31875000000002
20
-54.125000000000007
42
-0.41421356237309503
10
270.81875000000002
20
-54.625
0
LWPOLYLINE
5
180
100
AcDbEntity
8
0
100
AcDbPolyline
90
8
70
1
43
0.0
10
226.86250000000001
20
-54.625000000000014
42
-0.41421356237309503
10
226.36250000000001
20
-54.125000000000007
10
226.36250000000001
20
-41.125
42
-0.41421356237309503
10
226.86250000000001
20
-40.625
10
239.86250000000001
20
-40.624999999999993
42
-0.41421356237309503
10
240.36250000000001
20
-41.125
10
240.36250000000001
20
-54.125000000000007
42
-0.41421356237309503
10
239.86250000000001
20
-54.625
0
LWPOLYLINE
5
181
100
AcDbEntity
8
0
100
AcDbPolyline
90
8
70
1
43
0.0
10
249.38075000000001
20
-53.625000000000007
42
-0.41421356237309503
10
248.88075000000001
20
-53.125
10
248.88075000000001
20
-39.125
42
-0.41421356237309503
10
249.38075000000001
20
-38.625
10
255.38075000000003
20
-38.624999999999986
42
-0.41421356237309503
10
255.88075000000003
20
-39.125
10
255.88075000000003
20
-53.125
42
-0.41421356237309503
10
255.38075000000003
20
-53.625
0
LWPOLYLINE
5
182
100
AcDbEntity
8
0
100
AcDbPolyline
90
8
70
1
43
0.0
10
279.25675000000001
20
-38.624999999999986
42
-0.41421356237309503
10
279.75675000000001
20
-39.125
10
279.75675000000001
20
-53.125
42
-0.41421356237309503
10
279.25675000000001
20
-53.625
10
273.25675000000001
20
-53.625000000000007
42
-0.41421356237309503
10
272.75675000000001
20
-53.125
10
272.75675000000001
20
-39.125
42
-0.41421356237309503
10
273.25675000000001
20
-38.625
0
LWPOLYLINE
5
183
100
AcDbEntity
8
0
100
AcDbPolyline
90
8
70
1
43
0.0
10
177.46875
20
-77.224999999999994
10
177.46875
20
-91.225000000000009
42
0.41421356237309503
10
177.96875
20
-91.724999999999994
10
183.96875
20
-91.724999999999994
42
0.41421356237309503
10
184.46875000000003
20
-91.225000000000009
10
184.46875000000003
20
-77.224999999999994
42
0.41421356237309503
10
183.96875
20
-76.724999999999994
10
177.96875
20
-76.724999999999994
42
0.41421356237309503
0
LWPOLYLINE
5
184
100
AcDbEntity
8
0
100
AcDbPolyline
90
8
70
1
43
0.0
10
83.96875
20
-76.724999999999994
10
77.96875
20
-76.724999999999994
42
0.41421356237309503
10
77.46875
20
-77.224999999999994
10
77.46875
20
-91.225000000000009
42
0.41421356237309503
10
77.96875
20
-91.724999999999994
10
83.96875
20
-91.724999999999994
42
0.41421356237309503
10
84.46875
20
-91.225000000000009
10
84.46875
20
-77.224999999999994
42
0.41421356237309503
0
ARC
5
185
100
AcDbEntity
8
0
100
AcDbCircle
10
301.80000000000001
20
-92.249999999999972
30
0
40
3.0000000000000071
210
0
220
0
230
1
100
AcDbArc
50
270
51
360
0
ARC
5
186
100
AcDbEntity
8
0
100
AcDbCircle
10
301.80000000000001
20
-3.0000000000000142
30
0
40
3.0000000000000071
210
0
220
-0
230
1
100
AcDbArc
50
0
51
90
0
ARC
5
187
100
AcDbEntity
8
0
100
AcDbCircle
10
3
20
-3
30
0
40
3
210
0
220
-0
230
1
100
AcDbArc
50
90
51
180
0
ARC
5
188
100
AcDbEntity
8
0
100
AcDbCircle
10
3.0000000000000182
20
-92.25
30
0
40
3.0000000000000182
210
0
220
0
230
1
100
AcDbArc
50
180
51
269.9999999999996
0
LINE
5
189
100
AcDbEntity
8
0
100
AcDbLine
10
3.0000000000000004
20
0
30
0
11
22.000000283122063
21
1.1102230246251565e-15
31
0
0
LINE
5
190
100
AcDbEntity
8
0
100
AcDbLine
10
289.74827975201401
20
2.9143354396410359e-15
30
0
11
301.80000000000001
21
0
31
0
0
LINE
5
191
100
AcDbEntity
8
0
100
AcDbLine
10
289.75000000000006
20
-95.249999999999986
30
0
11
301.80000000000001
21
-95.249999999999986
31
0
0
LINE
5
192
100
AcDbEntity
8
0
100
AcDbLine
10
2.9999999999999991
20
-95.250000000000028
30
0
11
17.000000283122276
21
-95.250000000000028
31
0
0
LINE
5
193
100
AcDbEntity
8
0
100
AcDbLine
10
96.000000283122063
20
-5.5511151231257827e-15
30
0
11
115.40000000000003
21
-8.3266726846886741e-15
31
0
0
LINE
5
194
100
AcDbEntity
8
0
100
AcDbLine
10
189.40000000000001
20
1.1102230246251565e-14
30
0
11
208.75000000000003
21
1.7763568394002505e-14
31
0
0
LINE
5
195
100
AcDbEntity
8
0
100
AcDbLine
10
91.000000283122304
20
-95.25
30
0
11
115.40000000000005
21
-95.25
31
0
0
LINE
5
196
100
AcDbEntity
8
0
100
AcDbLine
10
189.40000000000001
20
-95.25
30
0
11
213.75000000000003
21
-95.25
31
0
0
LINE
5
197
100
AcDbEntity
8
0
100
AcDbLine
10
117.40000000000002
20
3.0000000000000004
30
0
11
117.40000000000002
21
1.9999999999999969
31
0
0
LINE
5
198
100
AcDbEntity
8
0
100
AcDbLine
10
187.40000000000003
20
3.0000000000000004
30
0
11
187.40000000000003
21
2.0000000000000071
31
0
0
LINE
5
199
100
AcDbEntity
8
0
100
AcDbLine
10
210.75000000000003
20
3.0000000000000018
30
0
11
210.75000000000003
21
2.0000000000000133
31
0
0
LINE
5
200
100
AcDbEntity
8
0
100
AcDbLine
10
94.000000283122063
20
3.0000000000000004
30
0
11
94.000000283122063
21
1.9999999999999996
31
0
0
LINE
5
201
100
AcDbEntity
8
0
100
AcDbLine
10
19.000000283122279
20
-97.250000000000014
30
0
11
19.000000283122279
21
-98.250000000000014
31
0
0
LINE
5
202
100
AcDbEntity
8
0
100
AcDbLine
10
89.00000028312229
20
-98.250000000000028
30
0
11
89.00000028312229
21
-97.250000000000014
31
0
0
LINE
5
203
100
AcDbEntity
8
0
100
AcDbLine
10
24.000000283122063
20
3.0000000000000004
30
0
11
24.000000283122063
21
1.9999999999999996
31
0
0
LINE
5
204
100
AcDbEntity
8
0
100
AcDbLine
10
280.75
20
3.0000000000000018
30
0
11
280.75
21
2.0000000000000178
31
0
0
LINE
5
205
100
AcDbEntity
8
0
100
AcDbLine
10
215.75000000000003
20
-98.250000000000014
30
0
11
215.75000000000003
21
-97.25
31
0
0
LINE
5
206
100
AcDbEntity
8
0
100
AcDbLine
10
187.40000000000003
20
-98.250000000000014
30
0
11
187.40000000000003
21
-97.25
31
0
0
LINE
5
207
100
AcDbEntity
8
0
100
AcDbLine
10
292.00000435113907
20
0
30
0
11
282.75
21
2.4147350785597155e-14
31
0
0
LINE
5
208
100
AcDbEntity
8
0
100
AcDbLine
10
26.000000283122063
20
5
30
0
11
92.000000283122063
21
5
31
0
0
ARC
5
209
100
AcDbEntity
8
0
100
AcDbCircle
10
26.000000283122063
20
2.9999999999999973
30
0
40
2.0000000000000027
210
0
220
-0
230
1
100
AcDbArc
50
90
51
180
0
ARC
5
210
100
AcDbEntity
8
0
100
AcDbCircle
10
22.000000283122063
20
2.0000000000000027
30
0
40
2.0000000000000018
210
-0
220
0
230
1
100
AcDbArc
50
270
51
360
0
ARC
5
211
100
AcDbEntity
8
0
100
AcDbCircle
10
92.000000283122063
20
3.0000000000000124
30
0
40
1.9999999999999929
210
-0
220
0
230
1
100
AcDbArc
50
0
51
90
0
ARC
5
212
100
AcDbEntity
8
0
100
AcDbCircle
10
96.000000283122063
20
1.9999999999999873
30
0
40
1.9999999999999929
210
0
220
0
230
1
100
AcDbArc
50
180
51
270
0
ARC
5
213
100
AcDbEntity
8
0
100
AcDbCircle
10
119.40000000000001
20
3.0000000000000124
30
0
40
1.9999999999999873
210
0
220
-0
230
1
100
AcDbArc
50
90
51
180
0
ARC
5
214
100
AcDbEntity
8
0
100
AcDbCircle
10
115.40000000000003
20
1.9999999999999845
30
0
40
1.9999999999999929
210
-0
220
0
230
1
100
AcDbArc
50
-90
51
0
0
LINE
5
215
100
AcDbEntity
8
0
100
AcDbLine
10
119.40000000000001
20
5
30
0
11
185.40000000000003
21
5
31
0
0
LINE
5
216
100
AcDbEntity
8
0
100
AcDbLine
10
212.75000000000003
20
5.0000000000000009
30
0
11
278.75000000000006
21
5.0000000000000009
31
0
0
ARC
5
217
100
AcDbEntity
8
0
100
AcDbCircle
10
185.40000000000003
20
3.0000000000000036
30
0
40
1.9999999999999929
210
-0
220
0
230
1
100
AcDbArc
50
0
51
90
0
ARC
5
218
100
AcDbEntity
8
0
100
AcDbCircle
10
189.40000000000001
20
2.000000000000004
30
0
40
1.9999999999999929
210
0
220
0
230
1
100
AcDbArc
50
180
51
270
0
ARC
5
219
100
AcDbEntity
8
0
100
AcDbCircle
10
212.75000000000003
20
3.0000000000000049
30
0
40
1.9999999999999962
210
0
220
-0
230
1
100
AcDbArc
50
90
51
180
0
ARC
5
220
100
AcDbEntity
8
0
100
AcDbCircle
10
278.75000000000006
20
3.0000000000000049
30
0
40
1.9999999999999929
210
-0
220
0
230
1
100
AcDbArc
50
0
51
90
0
ARC
5
221
100
AcDbEntity
8
0
100
AcDbCircle
10
282.75
20
2.0000000000000169
30
0
40
1.9999999999999929
210
0
220
0
230
1
100
AcDbArc
50
180
51
270
0
ARC
5
222
100
AcDbEntity
8
0
100
AcDbCircle
10
208.75000000000003
20
2.0000000000000107
30
0
40
1.9999999999999929
210
-0
220
0
230
1
100
AcDbArc
50
-90
51
0
0
LINE
5
223
100
AcDbEntity
8
0
100
AcDbLine
10
87.00000028312229
20
-100.25
30
0
11
21.000000283122287
21
-100.24999999999999
31
0
0
ARC
5
224
100
AcDbEntity
8
0
100
AcDbCircle
10
17.000000283122287
20
-97.250000000000014
30
0
40
1.9999999999999929
210
0
220
-0
230
1
100
AcDbArc
50
0
51
90.000000000000313
0
ARC
5
225
100
AcDbEntity
8
0
100
AcDbCircle
10
21.000000283122262
20
-98.250000000000014
30
0
40
1.9999999999999818
210
0
220
0
230
1
100
AcDbArc
50
180
51
270.00000000000074
0
ARC
5
226
100
AcDbEntity
8
0
100
AcDbCircle
10
91.000000283122304
20
-97.250000000000014
30
0
40
2.0000000000000107
210
0
220
-0
230
1
100
AcDbArc
50
90
51
180
0
ARC
5
227
100
AcDbEntity
8
0
100
AcDbCircle
10
87.00000028312229
20
-98.25
30
0
40
2.0000000000000107
210
-0
220
0
230
1
100
AcDbArc
50
270
51
360
0
ARC
5
228
100
AcDbEntity
8
0
100
AcDbCircle
10
115.40000000000005
20
-97.25
30
0
40
1.9999999999999929
210
0
220
-0
230
1
100
AcDbArc
50
0
51
90
0
ARC
5
229
100
AcDbEntity
8
0
100
AcDbCircle
10
119.40000000000003
20
-98.250000000000014
30
0
40
1.9999999999999929
210
0
220
0
230
1
100
AcDbArc
50
180
51
270
0
LINE
5
230
100
AcDbEntity
8
0
100
AcDbLine
10
117.40000000000003
20
-97.25
30
0
11
117.40000000000003
21
-98.250000000000014
31
0
0
LINE
5
231
100
AcDbEntity
8
0
100
AcDbLine
10
119.40000000000003
20
-100.25
30
0
11
185.40000000000003
21
-100.25
31
0
0
LINE
5
232
100
AcDbEntity
8
0
100
AcDbLine
10
217.75000000000003
20
-100.25
30
0
11
283.75000000000006
21
-100.25
31
0
0
ARC
5
233
100
AcDbEntity
8
0
100
AcDbCircle
10
189.40000000000001
20
-97.25
30
0
40
1.9999999999999929
210
0
220
-0
230
1
100
AcDbArc
50
90
51
180
0
ARC
5
234
100
AcDbEntity
8
0
100
AcDbCircle
10
185.40000000000003
20
-98.250000000000014
30
0
40
1.9999999999999929
210
-0
220
0
230
1
100
AcDbArc
50
-90
51
0
0
LINE
5
235
100
AcDbEntity
8
0
100
AcDbLine
10
287.75
20
-95.249999999999986
30
0
11
289.75000000000006
21
-95.249999999999986
31
0
0
ARC
5
236
100
AcDbEntity
8
0
100
AcDbCircle
10
287.75
20
-97.249999999999972
30
0
40
1.9999999999999929
210
0
220
-0
230
1
100
AcDbArc
50
90
51
180
0
ARC
5
237
100
AcDbEntity
8
0
100
AcDbCircle
10
217.75000000000003
20
-98.250000000000014
30
0
40
1.9999999999999929
210
0
220
0
230
1
100
AcDbArc
50
180
51
270
0
LINE
5
238
100
AcDbEntity
8
0
100
AcDbLine
10
285.75
20
-97.249999999999972
30
0
11
285.75
21
-98.250000000000014
31
0
0
ARC
5
239
100
AcDbEntity
8
0
100
AcDbCircle
10
283.75000000000006
20
-98.250000000000014
30
0
40
1.9999999999999929
210
-0
220
0
230
1
100
AcDbArc
50
-90
51
0
0
ARC
5
240
100
AcDbEntity
8
0
100
AcDbCircle
10
213.75000000000003
20
-97.25
30
0
40
1.9999999999999929
210
0
220
-0
230
1
100
AcDbArc
50
0
51
90
0
ENDSEC
0
SECTION
2
OBJECTS
0
DICTIONARY
5
C
100
AcDbDictionary
3
ACAD_GROUP
350
D
3
ACAD_MLINESTYLE
350
17
0
DICTIONARY
5
D
100
AcDbDictionary
0
DICTIONARY
5
1A
330
C
100
AcDbDictionary
0
DICTIONARY
5
17
100
AcDbDictionary
0
ENDSEC
0
EOF
