0
SECTION
2
HEADER
9
$INSUNITS
70
4
9
$ACADVER
1
AC1014
9
$HANDSEED
5
FFFF
0
ENDSEC
0
SECTION
2
TABLES
0
TABLE
2
VPORT
5
8
100
AcDbSymbolTable
0
ENDTAB
0
TABLE
2
LTYPE
5
5
100
AcDbSymbolTable
0
LTYPE
5
14
100
AcDbSymbolTableRecord
100
AcDbLinetypeTableRecord
2
BYBLOCK
70
0
0
LTYPE
5
15
100
AcDbSymbolTableRecord
100
AcDbLinetypeTableRecord
2
BYLAYER
70
0
0
ENDTAB
0
TABLE
2
LAYER
5
2
100
AcDbSymbolTable
70
2
0
LAYER
5
50
100
AcDbSymbolTableRecord
100
AcDbLayerTableRecord
2
0
70
0
6
CONTINUOUS
0
ENDTAB
0
TABLE
2
STYLE
5
3
100
AcDbSymbolTable
70
1
0
STYLE
5
11
100
AcDbSymbolTableRecord
100
AcDbTextStyleTableRecord
2
STANDARD
70
0
0
ENDTAB
0
TABLE
2
VIEW
5
6
100
AcDbSymbolTable
70
0
0
ENDTAB
0
TABLE
2
UCS
5
7
100
AcDbSymbolTable
70
0
0
ENDTAB
0
TABLE
2
APPID
5
9
100
AcDbSymbolTable
70
2
0
APPID
5
12
100
AcDbSymbolTableRecord
100
AcDbRegAppTableRecord
2
ACAD
70
0
0
ENDTAB
0
TABLE
2
DIMSTYLE
5
A
100
AcDbSymbolTable
70
1
0
ENDTAB
0
TABLE
2
BLOCK_RECORD
5
1
100
AcDbSymbolTable
70
1
0
BLOCK_RECORD
5
1F
100
AcDbSymbolTableRecord
100
AcDbBlockTableRecord
2
*MODEL_SPACE
0
BLOCK_RECORD
5
1B
100
AcDbSymbolTableRecord
100
AcDbBlockTableRecord
2
*PAPER_SPACE
0
ENDTAB
0
ENDSEC
0
SECTION
2
BLOCKS
0
BLOCK
5
20
100
AcDbEntity
100
AcDbBlockBegin
2
*MODEL_SPACE
0
ENDBLK
5
21
100
AcDbEntity
100
AcDbBlockEnd
0
BLOCK
5
1C
100
AcDbEntity
100
AcDbBlockBegin
2
*PAPER_SPACE
0
ENDBLK
5
1D
100
AcDbEntity
100
AcDbBlockEnd
0
ENDSEC
0
SECTION
2
ENTITIES
0
LWPOLYLINE
5
100
100
AcDbEntity
8
0
100
AcDbPolyline
90
8
70
1
43
0.0
10
88.75
20
-21.575000000000006
10
101.75
20
-21.575000000000003
42
-0.41421356237311063
10
102.25000000000001
20
-22.074999999999999
10
102.25000000000001
20
-35.075000000000003
42
-0.41421356237309243
10
101.75
20
-35.57500000000001
10
88.75
20
-35.574999999999996
42
-0.41421356237311846
10
88.250000000000014
20
-35.075000000000003
10
88.250000000000014
20
-22.074999999999999
42
-0.41421356237305601
0
LWPOLYLINE
5
101
100
AcDbEntity
8
0
100
AcDbPolyline
90
8
70
1
43
0.0
10
240.65000000000001
20
-22.074999999999999
42
-0.41421356237310025
10
241.15000000000006
20
-21.575000000000006
10
254.15000000000006
20
-21.574999999999989
42
-0.41421356237307683
10
254.65000000000003
20
-22.074999999999999
10
254.65000000000003
20
-35.075000000000003
42
-0.4142135623730846
10
254.15000000000006
20
-35.57500000000001
10
241.15000000000006
20
-35.57500000000001
42
-0.41421356237307422
10
240.65000000000001
20
-35.075000000000003
0
LWPOLYLINE
5
102
100
AcDbEntity
8
0
100
AcDbPolyline
90
8
70
1
43
0.0
10
21.287500000000001
20
-22.074999999999999
42
0.41421356237308721
10
20.787500000000001
20
-21.575000000000006
10
7.7875000000000005
20
-21.575000000000006
42
0.41421356237310153
10
7.2875000000000023
20
-22.074999999999999
10
7.2874999999999979
20
-35.075000000000003
42
0.41421356237309243
10
7.7875000000000005
20
-35.57500000000001
10
20.787500000000001
20
-35.575000000000003
42
0.41421356237309243
10
21.287500000000001
20
-35.075000000000003
0
LWPOLYLINE
5
103
100
AcDbEntity
8
0
100
AcDbPolyline
90
8
70
1
43
0.0
10
45.100000000000009
20
-22.074999999999999
10
45.100000000000009
20
-35.075000000000003
42
-0.41421356237309503
10
44.600000000000001
20
-35.57500000000001
10
31.600000000000001
20
-35.575000000000003
42
-0.41421356237309243
10
31.100000000000001
20
-35.075000000000003
10
31.100000000000001
20
-22.074999999999999
42
-0.41421356237308721
10
31.600000000000001
20
-21.575000000000006
10
44.600000000000001
20
-21.575000000000003
42
-0.41421356237308982
0
LWPOLYLINE
5
104
100
AcDbEntity
8
0
100
AcDbPolyline
90
8
70
1
43
0.0
10
288.27499999999998
20
-16.024999999999999
42
0.4142135623730846
10
288.77499999999998
20
-16.525000000000006
10
301.77499999999998
20
-16.525000000000013
42
0.41421356237309892
10
302.27499999999998
20
-16.024999999999999
10
302.27499999999998
20
-3.0249999999999999
42
0.41421356237314544
10
301.77499999999998
20
-2.5249999999999928
10
288.77499999999998
20
-2.5249999999999941
42
0.41421356237307355
10
288.27499999999998
20
-3.0249999999999999
0
LWPOLYLINE
5
105
100
AcDbEntity
8
0
100
AcDbPolyline
90
8
70
1
43
0.0
10
23.168749999999999
20
-54.625
42
0.41421356237311063
10
23.668749999999999
20
-54.125000000000014
10
23.668749999999999
20
-41.125
42
0.41421356237310542
10
23.168749999999999
20
-40.625
10
10.168749999999999
20
-40.625
42
0.41421356237307555
10
9.6687499999999993
20
-41.125
10
9.6687500000000028
20
-54.125000000000014
42
0.41421356237310936
10
10.168749999999999
20
-54.625
0
LWPOLYLINE
5
106
100
AcDbEntity
8
0
100
AcDbPolyline
90
8
70
1
43
0.0
10
202.55000000000001
20
-35.075000000000003
42
0.41421356237307422
10
203.05000000000007
20
-35.57500000000001
10
216.05000000000004
20
-35.575000000000017
42
0.41421356237310025
10
216.55000000000004
20
-35.075000000000003
10
216.54999999999998
20
-22.074999999999999
42
0.41421356237308721
10
216.05000000000004
20
-21.574999999999992
10
203.05000000000007
20
-21.574999999999989
42
0.41421356237307683
10
202.55000000000001
20
-22.074999999999999
0
LWPOLYLINE
5
107
100
AcDbEntity
8
0
100
AcDbPolyline
90
8
70
1
43
0.0
10
139.84999999999999
20
-21.574999999999992
10
126.85000000000002
20
-21.575000000000003
42
0.41421356237308982
10
126.35000000000004
20
-22.074999999999999
10
126.34999999999999
20
-35.075000000000003
42
0.41421356237307161
10
126.85000000000001
20
-35.57500000000001
10
139.84999999999999
20
-35.575000000000003
42
0.41421356237309243
10
140.34999999999999
20
-35.075000000000003
10
140.34999999999999
20
-22.074999999999999
42
0.41421356237309503
0
LWPOLYLINE
5
108
100
AcDbEntity
8
0
100
AcDbPolyline
90
8
70
1
43
0.0
10
235.60000000000002
20
-35.075000000000003
42
-0.41421356237314444
10
235.10000000000002
20
-35.57500000000001
10
222.10000000000002
20
-35.575000000000017
42
-0.41421356237310025
10
221.59999999999999
20
-35.075000000000003
10
221.60000000000002
20
-22.074999999999999
42
-0.41421356237301959
10
222.10000000000002
20
-21.575000000000006
10
235.10000000000002
20
-21.575000000000017
42
-0.41421356237312362
10
235.60000000000002
20
-22.074999999999999
0
LWPOLYLINE
5
109
100
AcDbEntity
8
0
100
AcDbPolyline
90
8
70
1
43
0.0
10
183.5
20
-35.075000000000003
42
0.41421356237314444
10
184.00000000000003
20
-35.57500000000001
10
197.00000000000003
20
-35.575000000000017
42
0.41421356237310025
10
197.50000000000003
20
-35.075000000000003
10
197.50000000000003
20
-22.074999999999999
42
0.41421356237310281
10
197.00000000000003
20
-21.574999999999992
10
184.00000000000003
20
-21.575000000000017
42
0.41421356237312362
10
183.5
20
-22.074999999999999
0
LWPOLYLINE
5
110
100
AcDbEntity
8
0
100
AcDbPolyline
90
8
70
1
43
0.0
10
3.6874999999999991
20
-35.075000000000003
10
3.687500000000004
20
-22.074999999999999
42
0.41421356237308493
10
3.1875000000000009
20
-21.575000000000006
10
2.1875000000000004
20
-21.575000000000006
42
0.41421356237310203
10
1.6875000000000022
20
-22.074999999999999
10
1.6874999999999973
20
-35.075000000000003
42
0.41421356237309276
10
2.1875000000000004
20
-35.57500000000001
10
3.1875000000000009
20
-35.57500000000001
42
0.41421356237309537
0
LWPOLYLINE
5
111
100
AcDbEntity
8
0
100
AcDbPolyline
90
8
70
1
43
0.0
10
178.44999999999999
20
-35.075000000000003
42
-0.41421356237314444
10
177.94999999999999
20
-35.57500000000001
10
164.95000000000005
20
-35.575000000000031
42
-0.4142135623730846
10
164.44999999999999
20
-35.075000000000003
10
164.44999999999999
20
-22.074999999999999
42
-0.41421356237310025
10
164.95000000000005
20
-21.575000000000006
10
177.94999999999999
20
-21.575000000000017
42
-0.41421356237312362
10
178.44999999999999
20
-22.074999999999999
0
LWPOLYLINE
5
112
100
AcDbEntity
8
0
100
AcDbPolyline
90
8
70
1
43
0.0
10
42.718750000000007
20
-92.224999999999994
10
42.71875
20
-79.22499999999998
42
0.41421356237309503
10
42.21875
20
-78.724999999999994
10
29.21875
20
-78.724999999999994
42
0.41421356237308204
10
28.71875
20
-79.22499999999998
10
28.718750000000007
20
-92.224999999999994
42
0.41421356237309764
10
29.21875
20
-92.725000000000023
10
42.21875
20
-92.724999999999994
42
0.41421356237310542
0
LWPOLYLINE
5
113
100
AcDbEntity
8
0
100
AcDbPolyline
90
8
70
1
43
0.0
10
238.93125000000001
20
-73.674999999999969
42
0.41421356237310025
10
239.43125000000006
20
-73.174999999999983
10
239.43125000000009
20
-60.174999999999997
42
0.41421356237310025
10
238.93125000000001
20
-59.675000000000004
10
237.93125000000003
20
-59.674999999999997
42
0.41421356237307422
10
237.43125000000006
20
-60.174999999999997
10
237.43125000000006
20
-73.174999999999983
42
0.41421356237306384
10
237.93125000000003
20
-73.67500000000004
0
LWPOLYLINE
5
114
100
AcDbEntity
8
0
100
AcDbPolyline
90
8
70
1
43
0.0
10
18.40625
20
-92.724999999999994
42
0.41421356237310281
10
18.906250000000007
20
-92.224999999999994
10
18.906250000000004
20
-79.22499999999998
42
0.41421356237309243
10
18.40625
20
-78.724999999999994
10
5.4062499999999991
20
-78.724999999999994
42
0.41421356237309437
10
4.9062500000000018
20
-79.22499999999998
10
4.9062500000000044
20
-92.224999999999994
42
0.41421356237309892
10
5.4062499999999991
20
-92.725000000000023
0
LWPOLYLINE
5
115
100
AcDbEntity
8
0
100
AcDbPolyline
90
8
70
1
43
0.0
10
145.90000000000001
20
-35.57500000000001
10
158.90000000000001
20
-35.575000000000003
42
0.41421356237309243
10
159.40000000000001
20
-35.075000000000003
10
159.40000000000001
20
-22.074999999999999
42
0.41421356237309503
10
158.90000000000001
20
-21.574999999999992
10
145.90000000000003
20
-21.575000000000003
42
0.41421356237308982
10
145.40000000000003
20
-22.074999999999999
10
145.40000000000001
20
-35.075000000000003
42
0.41421356237307161
0
LWPOLYLINE
5
116
100
AcDbEntity
8
0
100
AcDbPolyline
90
8
70
1
43
0.0
10
264.96249999999998
20
-35.57500000000001
10
277.96249999999998
20
-35.575000000000031
42
0.4142135623730846
10
278.46250000000003
20
-35.075000000000003
10
278.46250000000003
20
-22.074999999999999
42
0.41421356237307422
10
277.96249999999998
20
-21.574999999999992
10
264.96249999999998
20
-21.575000000000017
42
0.41421356237312362
10
264.46249999999998
20
-22.074999999999999
10
264.46249999999998
20
-35.075000000000003
42
0.41421356237314444
0
LWPOLYLINE
5
117
100
AcDbEntity
8
0
100
AcDbPolyline
90
8
70
1
43
0.0
10
107.80000000000001
20
-35.57500000000001
10
120.8
20
-35.575000000000017
42
0.41421356237308721
10
121.29999999999998
20
-35.075000000000003
10
121.30000000000001
20
-22.074999999999999
42
0.41421356237307422
10
120.8
20
-21.574999999999992
10
107.80000000000001
20
-21.575000000000003
42
0.41421356237311063
10
107.30000000000001
20
-22.074999999999999
10
107.30000000000001
20
-35.075000000000003
42
0.41421356237309243
0
LWPOLYLINE
5
118
100
AcDbEntity
8
0
100
AcDbPolyline
90
8
70
1
43
0.0
10
137.96875000000003
20
-92.224999999999994
10
137.96875000000003
20
-79.22499999999998
42
0.41421356237304302
10
137.46875
20
-78.724999999999994
10
124.46875
20
-78.72499999999998
42
0.4142135623730846
10
123.96875000000001
20
-79.22499999999998
10
123.96875000000001
20
-92.224999999999994
42
0.41421356237309503
10
124.46875
20
-92.725000000000023
10
137.46875
20
-92.725000000000023
42
0.41421356237309503
0
LWPOLYLINE
5
119
100
AcDbEntity
8
0
100
AcDbPolyline
90
8
70
1
43
0.0
10
288.27499999999998
20
-73.174999999999983
42
0.41421356237306384
10
288.77499999999998
20
-73.67500000000004
10
301.77499999999998
20
-73.675000000000011
42
0.41421356237310025
10
302.27499999999998
20
-73.174999999999983
10
302.27499999999998
20
-60.174999999999997
42
0.41421356237314183
10
301.77499999999998
20
-59.675000000000004
10
288.77499999999998
20
-59.674999999999997
42
0.41421356237307422
10
288.27499999999998
20
-60.174999999999997
0
LWPOLYLINE
5
120
100
AcDbEntity
8
0
100
AcDbPolyline
90
8
70
1
43
0.0
10
66.03125
20
-92.724999999999994
42
0.41421356237311063
10
66.531250000000014
20
-92.224999999999994
10
66.53125
20
-79.22499999999998
42
0.41421356237309503
10
66.03125
20
-78.724999999999994
10
53.031250000000014
20
-78.724999999999994
42
0.41421356237307944
10
52.531250000000007
20
-79.22499999999998
10
52.531250000000007
20
-92.224999999999994
42
0.41421356237310542
10
53.031250000000014
20
-92.725000000000023
0
LWPOLYLINE
5
121
100
AcDbEntity
8
0
100
AcDbPolyline
90
8
70
1
43
0.0
10
269.22500000000008
20
-60.174999999999997
42
-0.4142135623730222
10
269.72500000000002
20
-59.675000000000004
10
282.72500000000002
20
-59.674999999999983
42
-0.41421356237310025
10
283.22500000000002
20
-60.174999999999997
10
283.22500000000002
20
-73.174999999999983
42
-0.41421356237314183
10
282.72500000000002
20
-73.674999999999983
10
269.72500000000002
20
-73.674999999999983
42
-0.41421356237313145
10
269.22500000000002
20
-73.174999999999983
0
LWPOLYLINE
5
122
100
AcDbEntity
8
0
100
AcDbPolyline
90
8
70
1
43
0.0
10
149.375
20
-2.5250000000000106
42
-0.41421356237310542
10
149.875
20
-3.0249999999999999
10
149.875
20
-16.024999999999999
42
-0.41421356237309243
10
149.375
20
-16.525000000000002
10
136.375
20
-16.525000000000006
42
-0.41421356237307294
10
135.875
20
-16.024999999999999
10
135.875
20
-3.0249999999999999
42
-0.41421356237307227
10
136.375
20
-2.5249999999999999
0
LWPOLYLINE
5
123
100
AcDbEntity
8
0
100
AcDbPolyline
90
8
70
1
43
0.0
10
97.775000000000006
20
-16.024999999999999
42
0.41421356237305862
10
98.275000000000006
20
-16.525000000000006
10
111.27500000000001
20
-16.524999999999988
42
0.41421356237310414
10
111.77500000000002
20
-16.024999999999999
10
111.77500000000002
20
-3.0249999999999999
42
0.41421356237309437
10
111.27500000000001
20
-2.5249999999999928
10
98.275000000000006
20
-2.5250000000000021
42
0.41421356237312074
10
97.77500000000002
20
-3.0249999999999999
0
LWPOLYLINE
5
124
100
AcDbEntity
8
0
100
AcDbPolyline
90
8
70
1
43
0.0
10
35.075000000000003
20
-16.525000000000006
42
0.4142135623730937
10
35.57500000000001
20
-16.024999999999999
10
35.57500000000001
20
-3.0249999999999999
42
0.41421356237309537
10
35.075000000000003
20
-2.5250000000000017
10
22.074999999999999
20
-2.5250000000000004
42
0.41421356237308787
10
21.575000000000006
20
-3.0249999999999999
10
21.575000000000006
20
-16.024999999999999
42
0.41421356237310281
10
22.074999999999999
20
-16.524999999999999
0
LWPOLYLINE
5
125
100
AcDbEntity
8
0
100
AcDbPolyline
90
8
70
1
43
0.0
10
116.82500000000003
20
-3.0249999999999999
10
116.82500000000002
20
-16.024999999999999
42
0.41421356237305862
10
117.32500000000002
20
-16.525000000000006
10
130.32499999999999
20
-16.525000000000006
42
0.41421356237309503
10
130.82499999999999
20
-16.024999999999999
10
130.82499999999999
20
-3.0249999999999999
42
0.41421356237309437
10
130.32499999999999
20
-2.5249999999999928
10
117.32500000000002
20
-2.5250000000000021
42
0.41421356237312074
0
LWPOLYLINE
5
126
100
AcDbEntity
8
0
100
AcDbPolyline
90
8
70
1
43
0.0
10
54.625
20
-16.024999999999999
10
54.625
20
-3.0249999999999999
42
0.41421356237310902
10
54.125000000000014
20
-2.5250000000000017
10
41.125000000000007
20
-2.5249999999999972
42
0.41421356237309764
10
40.625
20
-3.0249999999999999
10
40.625
20
-16.024999999999999
42
0.41421356237307422
10
41.125
20
-16.524999999999999
10
54.125000000000014
20
-16.524999999999999
42
0.41421356237307944
0
LWPOLYLINE
5
127
100
AcDbEntity
8
0
100
AcDbPolyline
90
8
70
1
43
0.0
10
79.22499999999998
20
-2.5249999999999999
10
92.224999999999994
20
-2.5250000000000044
42
-0.41421356237309859
10
92.725000000000023
20
-3.0249999999999999
10
92.724999999999994
20
-16.024999999999999
42
-0.41421356237305729
10
92.224999999999994
20
-16.525000000000002
10
79.224999999999994
20
-16.525000000000002
42
-0.41421356237309764
10
78.724999999999994
20
-16.024999999999999
10
78.724999999999994
20
-3.0249999999999999
42
-0.41421356237307522
0
LWPOLYLINE
5
128
100
AcDbEntity
8
0
100
AcDbPolyline
90
8
70
1
43
0.0
10
73.174999999999983
20
-16.525000000000006
42
0.41421356237308982
10
73.674999999999983
20
-16.024999999999999
10
73.674999999999983
20
-3.0249999999999999
42
0.41421356237309698
10
73.174999999999983
20
-2.5250000000000017
10
60.174999999999997
20
-2.524999999999999
42
0.41421356237309664
10
59.675000000000004
20
-3.0249999999999999
10
59.675000000000011
20
-16.024999999999999
42
0.41421356237309764
10
60.174999999999997
20
-16.524999999999999
0
LWPOLYLINE
5
129
100
AcDbEntity
8
0
100
AcDbPolyline
90
8
70
1
43
0.0
10
209.40625000000006
20
-79.22499999999998
42
0.41421356237312101
10
208.90625
20
-78.724999999999994
10
195.90625000000003
20
-78.724999999999952
42
0.41421356237304818
10
195.40625000000006
20
-79.22499999999998
10
195.40625000000009
20
-92.224999999999994
42
0.41421356237306384
10
195.90625000000003
20
-92.725000000000023
10
208.90625
20
-92.725000000000009
42
0.41421356237313667
10
209.40625
20
-92.224999999999994
0
LWPOLYLINE
5
130
100
AcDbEntity
8
0
100
AcDbPolyline
90
8
70
1
43
0.0
10
173.97500000000002
20
-3.0249999999999999
42
-0.41421356237312101
10
174.47500000000005
20
-2.5249999999999999
10
187.47499999999999
20
-2.5249999999999835
42
-0.41421356237310053
10
187.97499999999999
20
-3.0249999999999999
10
187.97499999999997
20
-16.024999999999999
42
-0.41421356237314577
10
187.47499999999999
20
-16.525000000000002
10
174.47500000000005
20
-16.524999999999984
42
-0.41421356237312362
10
173.97500000000005
20
-16.024999999999999
0
LWPOLYLINE
5
131
100
AcDbEntity
8
0
100
AcDbPolyline
90
8
70
1
43
0.0
10
245.125
20
-3.0249999999999999
42
0.41421356237308493
10
244.62500000000006
20
-2.5249999999999928
10
231.625
20
-2.5250000000000146
42
0.41421356237312396
10
231.125
20
-3.0249999999999999
10
231.12499999999997
20
-16.024999999999999
42
0.41421356237312362
10
231.625
20
-16.525000000000006
10
244.62500000000006
20
-16.525000000000006
42
0.41421356237307294
10
245.12500000000003
20
-16.024999999999999
0
LWPOLYLINE
5
132
100
AcDbEntity
8
0
100
AcDbPolyline
90
8
70
1
43
0.0
10
16.525000000000002
20
-16.024999999999999
10
16.524999999999999
20
-3.0249999999999999
42
0.41421356237309631
10
16.024999999999999
20
-2.5249999999999995
10
3.0249999999999999
20
-2.5249999999999999
42
0.41421356237309437
10
2.5249999999999999
20
-3.0249999999999999
10
2.5249999999999995
20
-16.024999999999999
42
0.4142135623730937
10
3.0249999999999999
20
-16.525000000000002
10
16.024999999999999
20
-16.525000000000002
42
0.4142135623730937
0
LWPOLYLINE
5
133
100
AcDbEntity
8
0
100
AcDbPolyline
90
8
70
1
43
0.0
10
193.52500000000006
20
-16.524999999999984
42
-0.41421356237312235
10
193.02500000000006
20
-16.024999999999999
10
193.02500000000003
20
-3.0249999999999999
42
-0.41421356237312101
10
193.52500000000006
20
-2.5249999999999999
10
206.52500000000003
20
-2.5250000000000155
42
-0.41421356237312335
10
207.02500000000003
20
-3.0249999999999999
10
207.02500000000003
20
-16.024999999999999
42
-0.41421356237309892
10
206.52500000000003
20
-16.525000000000002
0
LWPOLYLINE
5
134
100
AcDbEntity
8
0
100
AcDbPolyline
90
8
70
1
43
0.0
10
154.92500000000001
20
-3.0249999999999999
10
154.92500000000001
20
-16.024999999999999
42
0.41421356237307555
10
155.42500000000001
20
-16.525000000000006
10
168.42500000000001
20
-16.524999999999984
42
0.41421356237312235
10
168.92500000000001
20
-16.024999999999999
10
168.92500000000001
20
-3.0249999999999999
42
0.41421356237310153
10
168.42500000000001
20
-2.5249999999999928
10
155.42500000000001
20
-2.5249999999999915
42
0.41421356237307488
0
LWPOLYLINE
5
135
100
AcDbEntity
8
0
100
AcDbPolyline
90
8
70
1
43
0.0
10
281.63799999999998
20
-3.5249999999999937
10
275.63800000000003
20
-3.5249999999999955
42
0.41421356237307322
10
275.13799999999998
20
-4.0250000000000004
10
275.13799999999998
20
-18.024999999999999
42
0.41421356237310675
10
275.63800000000003
20
-18.525000000000006
10
281.63799999999998
20
-18.525000000000016
42
0.41421356237310025
10
282.13799999999998
20
-18.024999999999999
10
282.13799999999998
20
-4.0250000000000004
42
0.41421356237314544
0
LWPOLYLINE
5
136
100
AcDbEntity
8
0
100
AcDbPolyline
90
8
70
1
43
0.0
10
212.57499999999999
20
-16.525000000000006
10
225.57500000000002
20
-16.52500000000002
42
0.41421356237310153
10
226.07500000000002
20
-16.024999999999999
10
226.07500000000002
20
-3.0249999999999999
42
0.41421356237314544
10
225.57500000000002
20
-2.5249999999999928
10
212.57499999999999
20
-2.5250000000000146
42
0.41421356237312396
10
212.07499999999999
20
-3.0249999999999999
10
212.07499999999996
20
-16.024999999999999
42
0.41421356237312362
0
LWPOLYLINE
5
137
100
AcDbEntity
8
0
100
AcDbPolyline
90
8
70
1
43
0.0
10
258.26200000000006
20
-4.0250000000000004
10
258.26200000000006
20
-18.024999999999999
42
-0.41421356237314316
10
257.76200000000006
20
-18.524999999999999
10
251.762
20
-18.524999999999988
42
-0.41421356237312495
10
251.262
20
-18.024999999999999
10
251.26199999999997
20
-4.0250000000000004
42
-0.41421356237312101
10
251.762
20
-3.5250000000000008
10
257.76200000000006
20
-3.5249999999999844
42
-0.41421356237310053
0
LWPOLYLINE
5
138
100
AcDbEntity
8
0
100
AcDbPolyline
90
8
70
1
43
0.0
10
50.650000000000013
20
-35.57500000000001
10
63.65000000000002
20
-35.57500000000001
42
0.41421356237309503
10
64.150000000000006
20
-35.075000000000003
10
64.150000000000006
20
-22.074999999999999
42
0.41421356237307944
10
63.65000000000002
20
-21.575000000000006
10
50.650000000000013
20
-21.575000000000006
42
0.41421356237309243
10
50.150000000000013
20
-22.074999999999999
10
50.15000000000002
20
-35.075000000000003
42
0.41421356237309243
0
LWPOLYLINE
5
139
100
AcDbEntity
8
0
100
AcDbPolyline
90
8
70
1
43
0.0
10
260.19999999999999
20
-2.5249999999999835
42
0.41421356237310053
10
259.69999999999999
20
-3.0249999999999999
10
259.69999999999999
20
-16.024999999999999
42
0.41421356237314577
10
260.19999999999999
20
-16.525000000000006
10
273.19999999999999
20
-16.524999999999984
42
0.41421356237312235
10
273.69999999999999
20
-16.024999999999999
10
273.69999999999999
20
-3.0249999999999999
42
0.41421356237310153
10
273.19999999999999
20
-2.5249999999999928
0
LWPOLYLINE
5
140
100
AcDbEntity
8
0
100
AcDbPolyline
90
8
70
1
43
0.0
10
69.200000000000017
20
-22.074999999999999
42
-0.41421356237310542
10
69.700000000000003
20
-21.575000000000006
10
82.699999999999989
20
-21.575000000000003
42
-0.41421356237308982
10
83.200000000000017
20
-22.074999999999999
10
83.199999999999989
20
-35.075000000000003
42
-0.41421356237309243
10
82.700000000000017
20
-35.57500000000001
10
69.700000000000003
20
-35.57500000000001
42
-0.41421356237308982
10
69.200000000000003
20
-35.075000000000003
0
LWPOLYLINE
5
141
100
AcDbEntity
8
0
100
AcDbPolyline
90
8
70
1
43
0.0
10
36.869250000000015
20
-61.174999999999997
42
0.41421356237309503
10
36.369250000000001
20
-60.674999999999997
10
30.369250000000001
20
-60.675000000000011
42
0.41421356237309764
10
29.869250000000001
20
-61.174999999999997
10
29.869250000000001
20
-75.174999999999983
42
0.41421356237308982
10
30.369250000000001
20
-75.674999999999983
10
36.369250000000001
20
-75.674999999999983
42
0.41421356237309243
10
36.869250000000008
20
-75.174999999999983
0
LWPOLYLINE
5
142
100
AcDbEntity
8
0
100
AcDbPolyline
90
8
70
1
43
0.0
10
26.387499999999999
20
-21.575000000000006
10
25.387500000000006
20
-21.575000000000006
42
0.41421356237310281
10
24.88750000000001
20
-22.074999999999999
10
24.887500000000003
20
-35.075000000000003
42
0.41421356237309243
10
25.387500000000006
20
-35.57500000000001
10
26.387499999999999
20
-35.57500000000001
42
0.41421356237309243
10
26.887500000000003
20
-35.075000000000003
10
26.887499999999996
20
-22.074999999999999
42
0.41421356237310281
0
LWPOLYLINE
5
143
100
AcDbEntity
8
0
100
AcDbPolyline
90
8
70
1
43
0.0
10
288.27499999999998
20
-79.22499999999998
10
288.27500000000003
20
-92.224999999999994
42
0.41421356237306384
10
288.77499999999998
20
-92.725000000000023
10
301.77499999999998
20
-92.725000000000051
42
0.41421356237311585
10
302.27499999999998
20
-92.224999999999994
10
302.27499999999998
20
-79.22499999999998
42
0.41421356237313667
10
301.77499999999998
20
-78.724999999999994
10
288.77499999999998
20
-78.724999999999952
42
0.41421356237304818
0
LWPOLYLINE
5
144
100
AcDbEntity
8
0
100
AcDbPolyline
90
8
70
1
43
0.0
10
219.71875
20
-78.724999999999994
10
232.71875
20
-78.724999999999994
42
-0.414213562373069
10
233.21875000000006
20
-79.22499999999998
10
233.21875000000006
20
-92.224999999999994
42
-0.4142135623730534
10
232.71875
20
-92.725000000000023
10
219.71875
20
-92.725000000000051
42
-0.41421356237311585
10
219.21875
20
-92.224999999999994
10
219.21875
20
-79.22499999999998
42
-0.41421356237313667
0
LWPOLYLINE
5
145
100
AcDbEntity
8
0
100
AcDbPolyline
90
8
70
1
43
0.0
10
59.387500000000003
20
-60.174999999999997
10
59.387500000000003
20
-73.174999999999983
42
-0.41421356237311063
10
58.887500000000017
20
-73.674999999999983
10
45.887500000000003
20
-73.674999999999983
42
-0.41421356237309503
10
45.387500000000003
20
-73.174999999999983
10
45.387500000000003
20
-60.174999999999997
42
-0.4142135623730846
10
45.887500000000003
20
-59.675000000000004
10
58.887500000000017
20
-59.675000000000004
42
-0.41421356237311063
0
LWPOLYLINE
5
146
100
AcDbEntity
8
0
100
AcDbPolyline
90
8
70
1
43
0.0
10
28.431250000000002
20
-73.174999999999983
10
28.431250000000002
20
-60.174999999999997
42
0.41421356237309764
10
27.931249999999999
20
-59.675000000000004
10
14.93125
20
-59.675000000000011
42
0.41421356237309764
10
14.431250000000002
20
-60.174999999999997
10
14.431249999999999
20
-73.174999999999983
42
0.41421356237309764
10
14.93125
20
-73.674999999999983
10
27.931249999999999
20
-73.674999999999983
42
0.41421356237308982
0
LINE
5
147
100
AcDbEntity
8
0
100
AcDbLine
10
0
20
-3.0000000000000004
30
0
11
0
21
-92.249999999999957
31
0
0
LWPOLYLINE
5
148
100
AcDbEntity
8
0
100
AcDbPolyline
90
8
70
1
43
0.0
10
96.987500000000011
20
-73.674999999999997
42
0.41421356237311585
10
97.487500000000011
20
-73.174999999999983
10
97.487500000000011
20
-60.174999999999997
42
0.41421356237310542
10
96.987500000000011
20
-59.675000000000004
10
83.987499999999983
20
-59.674999999999997
42
0.41421356237310542
10
83.487499999999983
20
-60.174999999999997
10
83.487500000000026
20
-73.174999999999983
42
0.4142135623730846
10
83.987499999999983
20
-73.67500000000004
0
LWPOLYLINE
5
149
100
AcDbEntity
8
0
100
AcDbPolyline
90
8
70
1
43
0.0
10
12.49325
20
-60.674999999999997
10
6.4932500000000015
20
-60.674999999999997
42
0.41421356237309698
10
5.9932500000000024
20
-61.174999999999997
10
5.9932500000000051
20
-75.174999999999983
42
0.41421356237310936
10
6.4932500000000015
20
-75.674999999999983
10
12.49325
20
-75.674999999999983
42
0.41421356237308721
10
12.993249999999998
20
-75.174999999999983
10
12.99325
20
-61.174999999999997
42
0.41421356237309631
0
LWPOLYLINE
5
150
100
AcDbEntity
8
0
100
AcDbPolyline
90
8
70
1
43
0.0
10
264.17500000000007
20
-92.224999999999994
10
264.17500000000007
20
-79.22499999999998
42
0.41421356237311063
10
263.67500000000001
20
-78.724999999999994
10
250.67500000000001
20
-78.725000000000009
42
0.41421356237312101
10
250.17500000000001
20
-79.22499999999998
10
250.17500000000007
20
-92.224999999999994
42
0.41421356237300139
10
250.67500000000001
20
-92.725000000000023
10
263.67500000000007
20
-92.724999999999994
42
0.4142135623730846
0
LWPOLYLINE
5
151
100
AcDbEntity
8
0
100
AcDbPolyline
90
8
70
1
43
0.0
10
288.77499999999998
20
-40.624999999999964
42
0.41421356237304818
10
288.27499999999998
20
-41.125
10
288.27500000000003
20
-54.125000000000014
42
0.41421356237308982
10
288.77499999999998
20
-54.625000000000021
10
301.77499999999998
20
-54.624999999999993
42
0.41421356237312101
10
302.27499999999998
20
-54.125000000000014
10
302.27499999999998
20
-41.125
42
0.41421356237314705
10
301.77499999999998
20
-40.624999999999993
0
LWPOLYLINE
5
152
100
AcDbEntity
8
0
100
AcDbPolyline
90
8
70
1
43
0.0
10
269.22500000000002
20
-79.22499999999998
10
269.22500000000008
20
-92.224999999999994
42
0.41421356237300139
10
269.72500000000002
20
-92.725000000000023
10
282.72500000000002
20
-92.725000000000051
42
0.41421356237311585
10
283.22500000000002
20
-92.224999999999994
10
283.22500000000002
20
-79.22499999999998
42
0.41421356237313667
10
282.72500000000002
20
-78.724999999999994
10
269.72500000000002
20
-78.725000000000009
42
0.41421356237312101
0
LWPOLYLINE
5
153
100
AcDbEntity
8
0
100
AcDbPolyline
90
8
70
1
43
0.0
10
211.28749999999999
20
-59.675000000000004
10
198.28749999999999
20
-59.674999999999997
42
0.41421356237307422
10
197.78750000000002
20
-60.174999999999997
10
197.78750000000002
20
-73.174999999999983
42
0.41421356237306384
10
198.28749999999999
20
-73.67500000000004
10
211.28749999999999
20
-73.675000000000011
42
0.41421356237310025
10
211.78750000000002
20
-73.174999999999983
10
211.78750000000002
20
-60.174999999999997
42
0.41421356237314183
0
LWPOLYLINE
5
154
100
AcDbEntity
8
0
100
AcDbPolyline
90
8
70
1
43
0.0
10
64.9375
20
-73.674999999999983
42
-0.41421356237310542
10
64.4375
20
-73.174999999999983
10
64.4375
20
-60.174999999999997
42
-0.41421356237310542
10
64.9375
20
-59.675000000000004
10
77.9375
20
-59.675000000000004
42
-0.41421356237309503
10
78.4375
20
-60.174999999999997
10
78.4375
20
-73.174999999999983
42
-0.4142135623730846
10
77.9375
20
-73.674999999999983
0
LWPOLYLINE
5
155
100
AcDbEntity
8
0
100
AcDbPolyline
90
8
70
1
43
0.0
10
243.53125000000006
20
-73.67500000000004
10
256.53125
20
-73.674999999999969
42
0.41421356237310025
10
257.03125000000006
20
-73.174999999999983
10
257.03125000000006
20
-60.174999999999997
42
0.41421356237310025
10
256.53125
20
-59.675000000000004
10
243.53125000000006
20
-59.675000000000018
42
0.41421356237310025
10
243.03125
20
-60.174999999999997
10
243.03125
20
-73.174999999999983
42
0.4142135623730534
0
LWPOLYLINE
5
156
100
AcDbEntity
8
0
100
AcDbPolyline
90
8
70
1
43
0.0
10
116.03749999999999
20
-73.674999999999997
42
0.41421356237309503
10
116.53750000000001
20
-73.174999999999983
10
116.53749999999999
20
-60.174999999999997
42
0.41421356237307422
10
116.03749999999999
20
-59.675000000000004
10
103.03750000000001
20
-59.674999999999997
42
0.41421356237311585
10
102.53749999999999
20
-60.174999999999997
10
102.53749999999999
20
-73.174999999999983
42
0.41421356237311063
10
103.03750000000001
20
-73.67500000000004
0
LWPOLYLINE
5
157
100
AcDbEntity
8
0
100
AcDbPolyline
90
8
70
1
43
0.0
10
173.1875
20
-59.675000000000004
10
160.18750000000006
20
-59.675000000000011
42
0.41421356237312623
10
159.6875
20
-60.174999999999997
10
159.6875
20
-73.174999999999983
42
0.414213562373069
10
160.1875
20
-73.67500000000004
10
173.1875
20
-73.674999999999983
42
0.41421356237313145
10
173.68750000000003
20
-73.174999999999983
10
173.6875
20
-60.174999999999997
42
0.4142135623730222
0
LWPOLYLINE
5
158
100
AcDbEntity
8
0
100
AcDbPolyline
90
8
70
1
43
0.0
10
179.23750000000001
20
-73.67500000000004
10
192.23750000000001
20
-73.674999999999969
42
0.41421356237310025
10
192.73750000000007
20
-73.174999999999983
10
192.73750000000007
20
-60.174999999999997
42
0.41421356237310025
10
192.23750000000001
20
-59.675000000000004
10
179.23750000000001
20
-59.674999999999983
42
0.41421356237310025
10
178.73750000000001
20
-60.174999999999997
10
178.73750000000001
20
-73.174999999999983
42
0.41421356237311585
0
LINE
5
159
100
AcDbEntity
8
0
100
AcDbLine
10
304.80000000000007
20
-2.9999999999999991
30
0
11
304.80000000000007
21
-92.25
31
0
0
LWPOLYLINE
5
160
100
AcDbEntity
8
0
100
AcDbPolyline
90
8
70
1
43
0.0
10
216.83750000000003
20
-60.174999999999997
10
216.83750000000003
20
-73.174999999999983
42
0.41421356237306384
10
217.33750000000001
20
-73.67500000000004
10
230.33750000000001
20
-73.674999999999969
42
0.41421356237310025
10
230.83750000000006
20
-73.174999999999983
10
230.83750000000009
20
-60.174999999999997
42
0.41421356237310025
10
230.33750000000001
20
-59.675000000000004
10
217.33750000000001
20
-59.674999999999997
42
0.41421356237307422
0
LWPOLYLINE
5
161
100
AcDbEntity
8
0
100
AcDbPolyline
90
8
70
1
43
0.0
10
135.08750000000001
20
-73.674999999999997
42
0.41421356237309503
10
135.58750000000001
20
-73.174999999999983
10
135.58750000000001
20
-60.174999999999997
42
0.41421356237307422
10
135.08750000000001
20
-59.675000000000004
10
122.08750000000002
20
-59.674999999999997
42
0.41421356237311585
10
121.58750000000001
20
-60.174999999999997
10
121.58750000000001
20
-73.174999999999983
42
0.41421356237311063
10
122.08750000000002
20
-73.67500000000004
0
LWPOLYLINE
5
162
100
AcDbEntity
8
0
100
AcDbPolyline
90
8
70
1
43
0.0
10
140.63749999999999
20
-73.174999999999983
10
140.63749999999999
20
-60.174999999999997
42
-0.41421356237310542
10
141.13749999999999
20
-59.675000000000004
10
154.13749999999999
20
-59.675000000000004
42
-0.41421356237308982
10
154.63750000000005
20
-60.174999999999997
10
154.63750000000005
20
-73.174999999999983
42
-0.41421356237308982
10
154.13749999999999
20
-73.674999999999983
10
141.13749999999999
20
-73.674999999999997
42
-0.41421356237311585
0
LWPOLYLINE
5
163
100
AcDbEntity
8
0
100
AcDbPolyline
90
8
70
1
43
0.0
10
261.13125000000002
20
-59.675000000000004
42
0.41421356237313145
10
260.63125000000002
20
-60.174999999999997
10
260.63125000000002
20
-73.174999999999983
42
0.41421356237307944
10
261.13125000000002
20
-73.67500000000004
10
262.13125000000002
20
-73.674999999999969
42
0.41421356237310025
10
262.63125000000008
20
-73.174999999999983
10
262.63124999999997
20
-60.174999999999997
42
0.4142135623730846
10
262.13125000000002
20
-59.675000000000004
0
LWPOLYLINE
5
164
100
AcDbEntity
8
0
100
AcDbPolyline
90
8
70
1
43
0.0
10
288.27500000000003
20
-22.074999999999999
42
-0.41421356237307944
10
288.77499999999998
20
-21.575000000000006
10
301.77499999999998
20
-21.575000000000017
42
-0.41421356237312362
10
302.27499999999998
20
-22.074999999999999
10
302.27499999999998
20
-35.075000000000003
42
-0.41421356237314444
10
301.77499999999998
20
-35.57500000000001
10
288.77499999999998
20
-35.575000000000038
42
-0.41421356237305079
10
288.27499999999998
20
-35.075000000000003
0
LWPOLYLINE
5
165
100
AcDbEntity
8
0
100
AcDbPolyline
90
8
70
1
43
0.0
10
28.768750000000001
20
-40.625
10
27.768750000000004
20
-40.625
42
0.41421356237308204
10
27.268750000000004
20
-41.125
10
27.268750000000004
20
-54.125000000000014
42
0.41421356237307944
10
27.768750000000004
20
-54.625
10
28.768750000000001
20
-54.625
42
0.41421356237308204
10
29.268750000000004
20
-54.125000000000014
10
29.268749999999997
20
-41.125
42
0.41421356237309503
0
LWPOLYLINE
5
166
100
AcDbEntity
8
0
100
AcDbPolyline
90
8
70
1
43
0.0
10
260.36250000000001
20
-21.574999999999992
10
259.36250000000001
20
-21.574999999999989
42
0.41421356237307683
10
258.86250000000007
20
-22.074999999999999
10
258.86250000000007
20
-35.075000000000003
42
0.4142135623730846
10
259.36250000000001
20
-35.57500000000001
10
260.36250000000001
20
-35.575000000000017
42
0.41421356237310025
10
260.86250000000001
20
-35.075000000000003
10
260.86250000000001
20
-22.074999999999999
42
0.41421356237310281
0
LWPOLYLINE
5
167
100
AcDbEntity
8
0
100
AcDbPolyline
90
8
70
1
43
0.0
10
93.012500000000017
20
-54.125000000000014
10
93.012500000000017
20
-41.125
42
-0.41421356237305862
10
93.512500000000003
20
-40.625
10
106.51250000000003
20
-40.624999999999993
42
-0.4142135623730846
10
107.01250000000002
20
-41.125
10
107.01250000000002
20
-54.125000000000014
42
-0.41421356237311585
10
106.51250000000003
20
-54.625
10
93.512500000000003
20
-54.624999999999993
42
-0.41421356237311063
0
LWPOLYLINE
5
168
100
AcDbEntity
8
0
100
AcDbPolyline
90
8
70
1
43
0.0
10
35.86249999999999
20
-41.125
42
-0.41421356237310025
10
36.362499999999997
20
-40.625
10
49.362500000000004
20
-40.625
42
-0.41421356237309503
10
49.862499999999997
20
-41.125
10
49.862500000000011
20
-54.125000000000014
42
-0.41421356237307422
10
49.362500000000004
20
-54.625
10
36.362499999999997
20
-54.625
42
-0.4142135623730846
10
35.862500000000011
20
-54.125000000000014
0
LWPOLYLINE
5
169
100
AcDbEntity
8
0
100
AcDbPolyline
90
8
70
1
43
0.0
10
284.0625
20
-35.075000000000003
42
-0.4142135623730846
10
283.5625
20
-35.57500000000001
10
282.5625
20
-35.575000000000017
42
-0.41421356237310025
10
282.0625
20
-35.075000000000003
10
282.06250000000006
20
-22.074999999999999
42
-0.41421356237301959
10
282.5625
20
-21.575000000000006
10
283.5625
20
-21.574999999999989
42
-0.41421356237307683
10
284.06250000000006
20
-22.074999999999999
0
LWPOLYLINE
5
170
100
AcDbEntity
8
0
100
AcDbPolyline
90
8
70
1
43
0.0
10
6.0687500000000005
20
-54.125000000000014
10
6.0687499999999952
20
-41.125000000000007
42
0.41421356237310281
10
5.5687500000000014
20
-40.625
10
4.5687500000000005
20
-40.625
42
0.41421356237307455
10
4.0687500000000014
20
-41.125
10
4.068749999999997
20
-54.125000000000014
42
0.41421356237308266
10
4.5687500000000005
20
-54.625
10
5.5687500000000014
20
-54.625
42
0.41421356237308005
0
LWPOLYLINE
5
171
100
AcDbEntity
8
0
100
AcDbPolyline
90
8
70
1
43
0.0
10
188.26249999999999
20
-54.125000000000014
10
188.26249999999993
20
-41.125
42
-0.41421356237312101
10
188.76249999999999
20
-40.625
10
201.76250000000005
20
-40.624999999999972
42
-0.4142135623730846
10
202.26249999999999
20
-41.125
10
202.26249999999999
20
-54.125000000000014
42
-0.41421356237316787
10
201.76249999999999
20
-54.625
10
188.76249999999999
20
-54.625
42
-0.41421356237312623
0
LWPOLYLINE
5
172
100
AcDbEntity
8
0
100
AcDbPolyline
90
8
70
1
43
0.0
10
112.56250000000001
20
-40.625
42
0.41421356237308982
10
112.0625
20
-41.125
10
112.0625
20
-54.125000000000014
42
0.41421356237310025
10
112.56250000000001
20
-54.625000000000021
10
125.5625
20
-54.625
42
0.41421356237306384
10
126.06250000000001
20
-54.125000000000014
10
126.06250000000001
20
-41.125
42
0.41421356237307422
10
125.5625
20
-40.624999999999993
0
LWPOLYLINE
5
173
100
AcDbEntity
8
0
100
AcDbPolyline
90
8
70
1
43
0.0
10
54.912500000000009
20
-54.125000000000014
42
0.41421356237309503
10
55.412500000000016
20
-54.625
10
68.412499999999994
20
-54.625
42
0.41421356237311063
10
68.912499999999994
20
-54.125000000000014
10
68.912499999999994
20
-41.125
42
0.41421356237309503
10
68.412499999999994
20
-40.625
10
55.412500000000016
20
-40.625
42
0.41421356237307944
10
54.912500000000009
20
-41.125
0
LWPOLYLINE
5
174
100
AcDbEntity
8
0
100
AcDbPolyline
90
8
70
1
43
0.0
10
271.31875000000008
20
-41.125
42
0.41421356237312101
10
270.81875000000002
20
-40.624999999999993
10
257.81875000000002
20
-40.624999999999972
42
0.4142135623730846
10
257.31875000000002
20
-41.125
10
257.31875000000002
20
-54.125000000000014
42
0.41421356237314705
10
257.81875000000002
20
-54.625000000000021
10
270.81875000000002
20
-54.625
42
0.41421356237312623
10
271.31875000000002
20
-54.125000000000014
0
LWPOLYLINE
5
175
100
AcDbEntity
8
0
100
AcDbPolyline
90
8
70
1
43
0.0
10
87.46250000000002
20
-54.625
10
74.462500000000006
20
-54.625
42
-0.41421356237311063
10
73.962500000000006
20
-54.125000000000014
10
73.962500000000006
20
-41.125
42
-0.41421356237309503
10
74.462500000000006
20
-40.625
10
87.462500000000034
20
-40.625
42
-0.41421356237305862
10
87.96250000000002
20
-41.125
10
87.962500000000006
20
-54.125000000000014
42
-0.41421356237311585
0
LWPOLYLINE
5
176
100
AcDbEntity
8
0
100
AcDbPolyline
90
8
70
1
43
0.0
10
131.11250000000001
20
-54.125000000000014
42
0.41421356237310025
10
131.61250000000001
20
-54.625000000000021
10
144.61250000000001
20
-54.625
42
0.41421356237306384
10
145.11250000000001
20
-54.125000000000014
10
145.11250000000001
20
-41.125
42
0.41421356237307422
10
144.61250000000001
20
-40.624999999999993
10
131.61250000000001
20
-40.625
42
0.41421356237308982
10
131.11250000000001
20
-41.125
0
LWPOLYLINE
5
177
100
AcDbEntity
8
0
100
AcDbPolyline
90
8
70
1
43
0.0
10
220.8125
20
-54.624999999999993
42
0.41421356237312101
10
221.3125
20
-54.125000000000014
10
221.3125
20
-41.125
42
0.41421356237314705
10
220.8125
20
-40.624999999999993
10
207.8125
20
-40.624999999999964
42
0.41421356237304818
10
207.31250000000003
20
-41.125
10
207.31250000000006
20
-54.125000000000014
42
0.41421356237308982
10
207.8125
20
-54.625000000000021
0
LWPOLYLINE
5
178
100
AcDbEntity
8
0
100
AcDbPolyline
90
8
70
1
43
0.0
10
182.71250000000006
20
-54.625
10
169.71250000000001
20
-54.624999999999993
42
-0.41421356237312101
10
169.21250000000001
20
-54.125000000000014
10
169.21250000000001
20
-41.125
42
-0.41421356237313667
10
169.71250000000001
20
-40.625
10
182.71250000000006
20
-40.625
42
-0.414213562373069
10
183.21250000000003
20
-41.125
10
183.21250000000006
20
-54.125000000000014
42
-0.41421356237309503
0
LWPOLYLINE
5
179
100
AcDbEntity
8
0
100
AcDbPolyline
90
8
70
1
43
0.0
10
164.16250000000005
20
-54.125000000000014
42
-0.41421356237316787
10
163.66250000000005
20
-54.625
10
150.66249999999999
20
-54.625
42
-0.41421356237310542
10
150.16249999999999
20
-54.125000000000014
10
150.16249999999999
20
-41.125
42
-0.41421356237308982
10
150.66249999999999
20
-40.625
10
163.66250000000008
20
-40.624999999999972
42
-0.4142135623730846
10
164.16250000000005
20
-41.125
0
LWPOLYLINE
5
180
100
AcDbEntity
8
0
100
AcDbPolyline
90
8
70
1
43
0.0
10
77.96875
20
-76.72499999999998
10
83.96875
20
-76.72499999999998
42
-0.41421356237309503
10
84.46875
20
-77.22499999999998
10
84.46875
20
-91.225000000000023
42
-0.41421356237307422
10
83.96875
20
-91.724999999999994
10
77.96875
20
-91.724999999999994
42
-0.41421356237307422
10
77.46875
20
-91.225000000000023
10
77.46875
20
-77.22499999999998
42
-0.41421356237310542
0
LWPOLYLINE
5
181
100
AcDbEntity
8
0
100
AcDbPolyline
90
8
70
1
43
0.0
10
184.46875000000003
20
-77.22499999999998
10
184.46875000000003
20
-91.225000000000023
42
-0.41421356237303258
10
183.96875
20
-91.724999999999994
10
177.96875
20
-91.725000000000009
42
-0.4142135623730846
10
177.46875
20
-91.225000000000023
10
177.46875000000003
20
-77.22499999999998
42
-0.4142135623730222
10
177.96875
20
-76.72499999999998
10
183.96875
20
-76.72499999999998
42
-0.41421356237313145
0
LWPOLYLINE
5
182
100
AcDbEntity
8
0
100
AcDbPolyline
90
8
70
1
43
0.0
10
249.38075000000001
20
-38.624999999999986
42
0.41421356237310025
10
248.88075000000001
20
-39.125
10
248.88075000000001
20
-53.125
42
0.41421356237314705
10
249.38075000000001
20
-53.625000000000007
10
255.38075000000006
20
-53.625000000000036
42
0.41421356237304818
10
255.88075000000003
20
-53.125
10
255.88075000000001
20
-39.125
42
0.41421356237308721
10
255.38075000000006
20
-38.624999999999993
0
LWPOLYLINE
5
183
100
AcDbEntity
8
0
100
AcDbPolyline
90
8
70
1
43
0.0
10
239.86250000000001
20
-40.624999999999993
10
226.86250000000001
20
-40.624999999999964
42
0.41421356237304818
10
226.36250000000004
20
-41.125
10
226.36250000000007
20
-54.125000000000014
42
0.41421356237308982
10
226.86250000000001
20
-54.625000000000021
10
239.86250000000001
20
-54.624999999999993
42
0.41421356237312101
10
240.36250000000001
20
-54.125000000000014
10
240.36250000000001
20
-41.125
42
0.41421356237314705
0
ARC
5
184
100
AcDbEntity
8
0
100
AcDbCircle
10
3.0000000000000182
20
-92.25
30
0
40
3.0000000000000182
210
0
220
0
230
1
100
AcDbArc
50
180
51
269.9999999999996
0
LINE
5
185
100
AcDbEntity
8
0
100
AcDbLine
10
186.82264973081038
20
1.0000000000000249
30
0
11
184.93182759921442
21
4.274999999999995
31
0
0
LWPOLYLINE
5
186
100
AcDbEntity
8
0
100
AcDbPolyline
90
8
70
1
43
0.0
10
279.25675000000001
20
-38.624999999999993
10
273.25675000000001
20
-38.625000000000014
42
0.41421356237312623
10
272.75675000000001
20
-39.125
10
272.75675000000001
20
-53.125
42
0.41421356237312623
10
273.25675000000001
20
-53.625000000000007
10
279.25675000000001
20
-53.625000000000007
42
0.41421356237309503
10
279.75675000000001
20
-53.125
10
279.75675000000001
20
-39.125
42
0.41421356237314444
0
ARC
5
187
100
AcDbEntity
8
0
100
AcDbCircle
10
3.0000000000000004
20
-3.0000000000000004
30
0
40
3.0000000000000004
210
0
220
-0
230
1
100
AcDbArc
50
90
51
180
0
ARC
5
188
100
AcDbEntity
8
0
100
AcDbCircle
10
279.75470643923904
20
2.0000000000000342
30
0
40
2.0000000000000147
210
0
220
0
230
1
100
AcDbArc
50
210.00000000000165
51
270
0
ARC
5
189
100
AcDbEntity
8
0
100
AcDbCircle
10
183.19977679164549
20
3.2750000000000052
30
0
40
2.0000000000000191
210
0
220
-0
230
1
100
AcDbArc
50
29.999999999999062
51
89.99999999999919
0
ARC
5
190
100
AcDbEntity
8
0
100
AcDbCircle
10
97.354694637519543
20
2.000000000000056
30
0
40
2.0000000000000679
210
0
220
0
230
1
100
AcDbArc
50
209.99999999999983
51
269.99999999999795
0
LINE
5
191
100
AcDbEntity
8
0
100
AcDbLine
10
97.354694637519472
20
-1.27675647831893e-14
30
0
11
98.501519273688388
21
1.1102230246251565e-14
31
0
0
LINE
5
192
100
AcDbEntity
8
0
100
AcDbLine
10
289.74827975201401
20
2.9143354396410359e-15
30
0
11
301.80000000000001
21
0
31
0
0
LINE
5
193
100
AcDbEntity
8
0
100
AcDbLine
10
207.44530536248055
20
-1.3045120539345588e-14
30
0
11
206.29848072631162
21
1.1102230246251567e-14
31
0
0
LINE
5
194
100
AcDbEntity
8
0
100
AcDbLine
10
152.40000000000003
20
5.2750000000000119
30
0
11
121.60022320835458
21
5.2750000000000119
31
0
0
LINE
5
195
100
AcDbEntity
8
0
100
AcDbLine
10
188.55470053837931
20
-1.3045120539345588e-14
30
0
11
189.70152517454818
21
1.1102230246251567e-14
31
0
0
ARC
5
196
100
AcDbEntity
8
0
100
AcDbCircle
10
301.80000000000001
20
-3.0000000000000142
30
0
40
3.0000000000000071
210
0
220
-0
230
1
100
AcDbArc
50
0
51
90
0
LINE
5
197
100
AcDbEntity
8
0
100
AcDbLine
10
243.6000059008598
20
5.2750000000000119
30
0
11
212.80022910921431
21
5.2750000000000119
31
0
0
LINE
5
198
100
AcDbEntity
8
0
100
AcDbLine
10
152.40000000000006
20
-100.52500000000016
30
0
11
183.1997767916456
21
-100.52500000000015
31
0
0
LINE
5
199
100
AcDbEntity
8
0
100
AcDbLine
10
187.40000000000006
20
1.1102230246251565e-14
30
0
11
195.87946808435532
21
1.1102230246251565e-14
31
0
0
ARC
5
200
100
AcDbEntity
8
0
100
AcDbCircle
10
121.60022320835458
20
3.2750000000000092
30
0
40
2.0000000000000027
210
0
220
-0
230
1
100
AcDbArc
50
90
51
150.00000000000023
0
ARC
5
201
100
AcDbEntity
8
0
100
AcDbCircle
10
301.80000000000001
20
-92.249999999999957
30
0
40
3.0000000000000071
210
0
220
0
230
1
100
AcDbArc
50
270
51
360
0
LINE
5
202
100
AcDbEntity
8
0
100
AcDbLine
10
152.40000000000003
20
5.2750000000000119
30
0
11
183.19977679164552
21
5.2750000000000234
31
0
0
LINE
5
203
100
AcDbEntity
8
0
100
AcDbLine
10
209.17735617004948
20
1.0000000000000249
30
0
11
211.06817830164545
21
4.274999999999995
31
0
0
LINE
5
204
100
AcDbEntity
8
0
100
AcDbLine
10
243.6000059008598
20
5.2750000000000119
30
0
11
274.39978269250525
21
5.2750000000000119
31
0
0
LINE
5
205
100
AcDbEntity
8
0
100
AcDbLine
10
189.70152517454818
20
1.1102230246251567e-14
30
0
11
206.29848072631162
21
1.1102230246251567e-14
31
0
0
LINE
5
206
100
AcDbEntity
8
0
100
AcDbLine
10
117.97735026918964
20
1
30
0
11
119.86817240078568
21
4.2750000000000101
31
0
0
LINE
5
207
100
AcDbEntity
8
0
100
AcDbLine
10
115.40000000000005
20
-8.3266726846886725e-15
30
0
11
98.501519273688388
21
1.1102230246251565e-14
31
0
0
LINE
5
208
100
AcDbEntity
8
0
100
AcDbLine
10
115.40000000000005
20
-8.3266726846886725e-15
30
0
11
116.24529946162077
21
1.0547118733938987e-14
31
0
0
ARC
5
209
100
AcDbEntity
8
0
100
AcDbCircle
10
274.39978269250525
20
3.2750000000000092
30
0
40
2.0000000000000133
210
0
220
-0
230
1
100
AcDbArc
50
29.99999999999843
51
90
0
ARC
5
210
100
AcDbEntity
8
0
100
AcDbCircle
10
116.24529946162077
20
2.0000000000000342
30
0
40
2.0000000000000244
210
0
220
0
230
1
100
AcDbArc
50
270
51
329.99999999999903
0
LINE
5
211
100
AcDbEntity
8
0
100
AcDbLine
10
251.90470053837936
20
-100.52500000000016
30
0
11
221.10492374673373
21
-100.52500000000015
31
0
0
LINE
5
212
100
AcDbEntity
8
0
100
AcDbLine
10
292.00000435113907
20
0
30
0
11
282.75
21
2.4147350785597158e-14
31
0
0
ARC
5
213
100
AcDbEntity
8
0
100
AcDbCircle
10
288.0594010767586
20
-97.250000000000227
30
0
40
2.0000000000000284
210
0
220
0
230
1
100
AcDbArc
50
90.000000000001634
51
149.99999999999957
0
LINE
5
214
100
AcDbEntity
8
0
100
AcDbLine
10
18.472649730810424
20
-96.250000000000426
30
0
11
20.363471862406467
21
-99.525000000000432
31
0
0
ARC
5
215
100
AcDbEntity
8
0
100
AcDbCircle
10
188.55470053837934
20
2.000000000000056
30
0
40
2.0000000000000653
210
0
220
0
230
1
100
AcDbArc
50
209.99999999999969
51
269.9999999999992
0
LINE
5
216
100
AcDbEntity
8
0
100
AcDbLine
10
280.6000059008598
20
-8.3266726846886725e-15
30
0
11
279.75470643923904
21
2.4702462297909733e-14
31
0
0
LINE
5
217
100
AcDbEntity
8
0
100
AcDbLine
10
288.9047005383793
20
-95.250000000000213
30
0
11
288.05940107675855
21
-95.250000000000199
31
0
0
LINE
5
218
100
AcDbEntity
8
0
100
AcDbLine
10
26.77734436832985
20
0.99999999999999967
30
0
11
28.66816649992586
21
4.2750000000000119
31
0
0
ARC
5
219
100
AcDbEntity
8
0
100
AcDbCircle
10
89.050000000000139
20
-97.250000000000298
30
0
40
2.0000000000000639
210
0
220
0
230
1
100
AcDbArc
50
90.000000000002032
51
149.99999999999997
0
ARC
5
220
100
AcDbEntity
8
0
100
AcDbCircle
10
215.75
20
-97.250000000000227
30
0
40
2.0000000000000782
210
0
220
-0
230
1
100
AcDbArc
50
30.000000000000718
51
89.99999999999838
0
LINE
5
221
100
AcDbEntity
8
0
100
AcDbLine
10
2.9999999999999964
20
-95.250000000000028
30
0
11
16.740598923241556
21
-95.250000000000426
31
0
0
ARC
5
222
100
AcDbEntity
8
0
100
AcDbCircle
10
183.19977679164555
20
-98.525000000000134
30
0
40
1.9999999999999929
210
0
220
0
230
1
100
AcDbArc
50
270.00000000000159
51
330.00000000000136
0
ARC
5
223
100
AcDbEntity
8
0
100
AcDbCircle
10
121.60022320835459
20
-98.525000000000205
30
0
40
1.9999999999999991
210
0
220
0
230
1
100
AcDbArc
50
210.00000000000048
51
270
0
LINE
5
224
100
AcDbEntity
8
0
100
AcDbLine
10
87.317949192431215
20
-96.25000000000027
30
0
11
85.427127060835204
21
-99.525000000000219
31
0
0
LINE
5
225
100
AcDbEntity
8
0
100
AcDbLine
10
115.40000000000006
20
-95.250000000000213
30
0
11
90.196824636168955
21
-95.250000000000213
31
0
0
LINE
5
226
100
AcDbEntity
8
0
100
AcDbLine
10
115.40000000000006
20
-95.250000000000213
30
0
11
116.24529946162082
21
-95.250000000000213
31
0
0
LINE
5
227
100
AcDbEntity
8
0
100
AcDbLine
10
24.199994099140234
20
-8.8817841970012507e-15
30
0
11
3.0000000000000004
21
0
31
0
0
LINE
5
228
100
AcDbEntity
8
0
100
AcDbLine
10
117.9773502691897
20
-96.250000000000213
30
0
11
119.86817240078572
21
-99.525000000000219
31
0
0
LINE
5
229
100
AcDbEntity
8
0
100
AcDbLine
10
52.895299461620802
20
-100.5250000000003
30
0
11
83.69507625326635
21
-100.52500000000023
31
0
0
ARC
5
230
100
AcDbEntity
8
0
100
AcDbCircle
10
221.10492374673385
20
-98.525000000000134
30
0
40
2.0000000000000426
210
0
220
0
230
1
100
AcDbArc
50
209.99999999999852
51
269.99999999999676
0
LINE
5
231
100
AcDbEntity
8
0
100
AcDbLine
10
282.75
20
2.4147350785597158e-14
30
0
11
280.6000059008598
21
-8.3266726846886725e-15
31
0
0
LINE
5
232
100
AcDbEntity
8
0
100
AcDbLine
10
188.55470053837934
20
-95.250000000000128
30
0
11
214.60317536383118
21
-95.250000000000128
31
0
0
ARC
5
233
100
AcDbEntity
8
0
100
AcDbCircle
10
83.695076253266265
20
-98.525000000000233
30
0
40
2.0000000000000107
210
0
220
0
230
1
100
AcDbArc
50
270.00000000000244
51
330.00000000000125
0
LINE
5
234
100
AcDbEntity
8
0
100
AcDbLine
10
52.895299461620802
20
-100.5250000000003
30
0
11
22.095522669975338
21
-100.5250000000004
31
0
0
LINE
5
235
100
AcDbEntity
8
0
100
AcDbLine
10
95.622643829950604
20
1.0000000000000269
30
0
11
93.731821698354594
21
4.274999999999995
31
0
0
LINE
5
236
100
AcDbEntity
8
0
100
AcDbLine
10
152.40000000000006
20
-100.52500000000016
30
0
11
121.60022320835459
21
-100.5250000000002
31
0
0
ARC
5
237
100
AcDbEntity
8
0
100
AcDbCircle
10
22.095522669975338
20
-98.525000000000418
30
0
40
1.9999999999999991
210
0
220
0
230
1
100
AcDbArc
50
210.0000000000004
51
270
0
ARC
5
238
100
AcDbEntity
8
0
100
AcDbCircle
10
25.045293560760985
20
2.0000000000000351
30
0
40
2.000000000000024
210
0
220
0
230
1
100
AcDbArc
50
270
51
329.99999999999886
0
ARC
5
239
100
AcDbEntity
8
0
100
AcDbCircle
10
188.55470053837936
20
-97.250000000000227
30
0
40
2.0000000000000639
210
0
220
0
230
1
100
AcDbArc
50
90.00000000000081
51
149.99999999999886
0
LINE
5
240
100
AcDbEntity
8
0
100
AcDbLine
10
217.48205080756892
20
-96.250000000000171
30
0
11
219.37287293916489
21
-99.525000000000119
31
0
0
ARC
5
241
100
AcDbEntity
8
0
100
AcDbCircle
10
30.400217307494763
20
3.2750000000000092
30
0
40
2.0000000000000027
210
0
220
-0
230
1
100
AcDbArc
50
90
51
150.00000000000031
0
LINE
5
242
100
AcDbEntity
8
0
100
AcDbLine
10
24.199994099140234
20
-8.8817841970012507e-15
30
0
11
25.045293560760985
21
1.1102230246251565e-14
31
0
0
LINE
5
243
100
AcDbEntity
8
0
100
AcDbLine
10
278.0226556316702
20
0.99999999999998923
30
0
11
276.13183350007421
21
4.2749999999999897
31
0
0
LINE
5
244
100
AcDbEntity
8
0
100
AcDbLine
10
186.82264973081047
20
-96.250000000000171
30
0
11
184.93182759921444
21
-99.525000000000091
31
0
0
ARC
5
245
100
AcDbEntity
8
0
100
AcDbCircle
10
91.999770890785712
20
3.2750000000000052
30
0
40
2.0000000000000191
210
0
220
-0
230
1
100
AcDbArc
50
29.999999999999687
51
89.99999999999919
0
ARC
5
246
100
AcDbEntity
8
0
100
AcDbCircle
10
212.8002291092144
20
3.2750000000000052
30
0
40
2.0000000000000067
210
0
220
0
230
1
100
AcDbArc
50
90.000000000002444
51
150.00000000000136
0
ARC
5
247
100
AcDbEntity
8
0
100
AcDbCircle
10
116.24529946162077
20
-97.250000000000227
30
0
40
2.0000000000000386
210
0
220
-0
230
1
100
AcDbArc
50
29.999999999999662
51
89.999999999998778
0
LINE
5
248
100
AcDbEntity
8
0
100
AcDbLine
10
61.199994099140227
20
5.2750000000000119
30
0
11
91.99977089078574
21
5.2750000000000234
31
0
0
ARC
5
249
100
AcDbEntity
8
0
100
AcDbCircle
10
207.4453053624805
20
2.000000000000056
30
0
40
2.0000000000000688
210
0
220
0
230
1
100
AcDbArc
50
270.00000000000159
51
330.00000000000074
0
LINE
5
250
100
AcDbEntity
8
0
100
AcDbLine
10
301.80000000000001
20
-95.249999999999972
30
0
11
288.9047005383793
21
-95.250000000000213
31
0
0
LINE
5
251
100
AcDbEntity
8
0
100
AcDbLine
10
251.90470053837936
20
-100.52500000000016
30
0
11
282.70447733002482
21
-100.52500000000022
31
0
0
LINE
5
252
100
AcDbEntity
8
0
100
AcDbLine
10
286.32735026918971
20
-96.250000000000199
30
0
11
284.4365281375936
21
-99.525000000000219
31
0
0
LINE
5
253
100
AcDbEntity
8
0
100
AcDbLine
10
61.199994099140227
20
5.2750000000000119
30
0
11
30.400217307494763
21
5.2750000000000119
31
0
0
ARC
5
254
100
AcDbEntity
8
0
100
AcDbCircle
10
16.740598923241521
20
-97.250000000000441
30
0
40
2.0000000000000404
210
0
220
-0
230
1
100
AcDbArc
50
29.999999999999979
51
89.999999999998991
0
LINE
5
255
100
AcDbEntity
8
0
100
AcDbLine
10
89.050000000000068
20
-95.250000000000227
30
0
11
90.196824636168955
21
-95.250000000000213
31
0
0
ARC
5
256
100
AcDbEntity
8
0
100
AcDbCircle
10
282.70447733002482
20
-98.525000000000205
30
0
40
1.9999999999999929
210
0
220
0
230
1
100
AcDbArc
50
270
51
329.99999999999829
0
LINE
5
257
100
AcDbEntity
8
0
100
AcDbLine
10
215.75000000000006
20
-95.250000000000142
30
0
11
214.60317536383118
21
-95.250000000000128
31
0
0
ENDSEC
0
SECTION
2
OBJECTS
0
DICTIONARY
5
C
100
AcDbDictionary
3
ACAD_GROUP
350
D
3
ACAD_MLINESTYLE
350
17
0
DICTIONARY
5
D
100
AcDbDictionary
0
DICTIONARY
5
1A
330
C
100
AcDbDictionary
0
DICTIONARY
5
17
100
AcDbDictionary
0
ENDSEC
0
EOF
